<svg width="9.250000" height="50.874512" viewBox="0 0 9.25 50.8745" fill="none" xmlns="http://www.w3.org/2000/svg" xmlns:xlink="http://www.w3.org/1999/xlink">
	<desc>
			Created with Pixso.
	</desc>
	<defs/>
	<path id="Vector" d="M0.0231323 5.08691C-0.0414429 4.44385 0.029541 3.79443 0.231384 3.18042C0.433289 2.56641 0.761597 2.00146 1.19519 1.52222C1.62878 1.04297 2.15802 0.659912 2.74878 0.397705C3.33954 0.135498 3.9787 0 4.625 0C5.2713 0 5.91046 0.135498 6.50122 0.397705C7.09198 0.659912 7.62122 1.04297 8.05481 1.52222C8.4884 2.00146 8.81671 2.56641 9.01862 3.18042C9.22046 3.79443 9.29144 4.44385 9.22687 5.08691L7.43237 34.4556C7.36304 35.1521 7.03735 35.7979 6.51855 36.2676C5.99976 36.7373 5.32489 36.9976 4.625 36.9976C3.92511 36.9976 3.25024 36.7373 2.73145 36.2676C2.21265 35.7979 1.88696 35.1521 1.81763 34.4556L0.0231323 5.08691ZM0 46.2495C0 45.0227 0.487305 43.8464 1.35461 42.979C2.22198 42.1118 3.39838 41.6245 4.625 41.6245C5.85162 41.6245 7.02802 42.1118 7.89539 42.979C8.7627 43.8464 9.25 45.0227 9.25 46.2495C9.25 47.4761 8.7627 48.6523 7.89539 49.5198C7.02802 50.3872 5.85162 50.8745 4.625 50.8745C3.39838 50.8745 2.22198 50.3872 1.35461 49.5198C0.487305 48.6523 0 47.4761 0 46.2495Z" fill="#C61800" fill-opacity="1.000000" fill-rule="nonzero"/>
</svg>
