<svg width="62.000000" height="40.041748" viewBox="0 0 62 40.0417" fill="none" xmlns="http://www.w3.org/2000/svg" xmlns:xlink="http://www.w3.org/1999/xlink">
	<desc>
			Created with Pixso.
	</desc>
	<defs>
		<linearGradient id="paint_linear_1_1750_0" x1="30.999992" y1="-2.722832" x2="30.999992" y2="46.488373" gradientUnits="userSpaceOnUse">
			<stop stop-color="#00C2E2"/>
			<stop offset="0.208333" stop-color="#00C2E2"/>
			<stop offset="0.432292" stop-color="#00BAD8"/>
			<stop offset="0.733095" stop-color="#00A5C0"/>
			<stop offset="1.000000" stop-color="#007C92"/>
		</linearGradient>
	</defs>
	<path id="Vector" d="M49.0833 14.2083C47.6367 14.2083 46.2675 14.4924 44.9758 14.9316L37.355 0L28.4167 0L28.4167 3.875L34.9783 3.875L37.2517 8.31836L31 22.2942L26.4275 11.4958C27.125 11.2375 27.745 10.54 27.745 9.6875C27.745 8.62842 26.8925 7.75 25.8333 7.75L20.6667 7.75C19.5817 7.75 18.7033 8.62842 18.7033 9.6875C18.7033 10.7466 19.5817 11.625 20.6667 11.625L22.2425 11.625L28.055 25.1875L25.6267 25.1875C24.6967 18.9875 19.375 14.2083 12.9167 14.2083C5.78667 14.2083 0 19.9951 0 27.125C0 34.2549 5.78667 40.0417 12.9167 40.0417C19.375 40.0417 24.6967 35.2625 25.6267 29.0625L32.2917 29.0625L39.4992 12.7358L41.54 16.6882C39.88 17.8765 38.5269 19.4426 37.5925 21.2576C36.6581 23.0723 36.1693 25.0837 36.1667 27.125C36.1667 34.2549 41.9533 40.0417 49.0833 40.0417C56.2133 40.0417 62 34.2549 62 27.125C62 19.9951 56.2133 14.2083 49.0833 14.2083ZM12.9167 36.1667C7.93083 36.1667 3.875 32.1108 3.875 27.125C3.875 22.1392 7.93083 18.0833 12.9167 18.0833C17.2308 18.0833 20.8475 21.1316 21.7258 25.1875L10.3333 25.1875L10.3333 29.0625L21.7258 29.0625C21.2871 31.0735 20.1745 32.874 18.5724 34.166C16.9703 35.458 14.9748 36.1638 12.9167 36.1667ZM49.0833 36.1667C44.0975 36.1667 40.0417 32.1108 40.0417 27.125C40.0417 24.335 41.3333 21.8809 43.3225 20.2275L47.9725 29.3208L51.3825 27.4609L46.7583 18.4192C47.5075 18.2383 48.2825 18.0833 49.0833 18.0833C54.0692 18.0833 58.125 22.1392 58.125 27.125C58.125 32.1108 54.0692 36.1667 49.0833 36.1667Z" fill="url(#paint_linear_1_1750_0)" fill-opacity="1.000000" fill-rule="nonzero"/>
</svg>
