<svg width="56.833313" height="31.000000" viewBox="0 0 56.8333 31" fill="none" xmlns="http://www.w3.org/2000/svg" xmlns:xlink="http://www.w3.org/1999/xlink">
	<desc>
			Created with Pixso.
	</desc>
	<defs>
		<linearGradient id="paint_linear_1_1746_0" x1="28.416656" y1="-2.107999" x2="28.416656" y2="35.990997" gradientUnits="userSpaceOnUse">
			<stop stop-color="#00C2E2"/>
			<stop offset="0.208333" stop-color="#00C2E2"/>
			<stop offset="0.432292" stop-color="#00BAD8"/>
			<stop offset="0.733095" stop-color="#00A5C0"/>
			<stop offset="1.000000" stop-color="#007C92"/>
		</linearGradient>
	</defs>
	<path id="Vector" d="M38.75 0L12.9167 0L0 15.5L0 23.25L5.16669 23.25C5.16669 25.3054 5.98315 27.2766 7.43658 28.73C8.89001 30.1836 10.8613 31 12.9167 31C14.9721 31 16.9434 30.1836 18.3967 28.73C19.8502 27.2766 20.6667 25.3054 20.6667 23.25L36.1667 23.25C36.1667 25.3054 36.9832 27.2766 38.4366 28.73C39.89 30.1836 41.8613 31 43.9167 31C45.9721 31 47.9434 30.1836 49.3967 28.73C50.8502 27.2766 51.6667 25.3054 51.6667 23.25L56.8333 23.25L56.8333 15.5C56.8333 12.6326 54.5342 10.3333 51.6667 10.3333L46.5 10.3333L38.75 0ZM14.2083 3.875L24.5417 3.875L24.5417 10.3333L9.04169 10.3333L14.2083 3.875ZM28.4167 3.875L37.4583 3.875L42.5217 10.3333L28.4167 10.3333L28.4167 3.875ZM12.9167 19.375C13.9444 19.375 14.93 19.7832 15.6567 20.51C16.3834 21.2366 16.7917 22.2222 16.7917 23.25C16.7917 24.2778 16.3834 25.2634 15.6567 25.99C14.93 26.7168 13.9444 27.125 12.9167 27.125C11.889 27.125 10.9033 26.7168 10.1766 25.99C9.44995 25.2634 9.04169 24.2778 9.04169 23.25C9.04169 22.2222 9.44995 21.2366 10.1766 20.51C10.9033 19.7832 11.889 19.375 12.9167 19.375ZM43.9167 19.375C44.9444 19.375 45.93 19.7832 46.6567 20.51C47.3834 21.2366 47.7917 22.2222 47.7917 23.25C47.7917 24.2778 47.3834 25.2634 46.6567 25.99C45.93 26.7168 44.9444 27.125 43.9167 27.125C42.889 27.125 41.9033 26.7168 41.1766 25.99C40.45 25.2634 40.0417 24.2778 40.0417 23.25C40.0417 22.2222 40.45 21.2366 41.1766 20.51C41.9033 19.7832 42.889 19.375 43.9167 19.375Z" fill="url(#paint_linear_1_1746_0)" fill-opacity="1.000000" fill-rule="nonzero"/>
</svg>
