<svg width="78" height="24" viewBox="0 0 78 24" fill="none" xmlns="http://www.w3.org/2000/svg">
<path d="M7.8 2H16.2C19.4 2 22 4.6 22 7.8V16.2C22 17.7383 21.3889 19.2135 20.3012 20.3012C19.2135 21.3889 17.7383 22 16.2 22H7.8C4.6 22 2 19.4 2 16.2V7.8C2 6.26174 2.61107 4.78649 3.69878 3.69878C4.78649 2.61107 6.26174 2 7.8 2ZM7.6 4C6.64522 4 5.72955 4.37928 5.05442 5.05442C4.37928 5.72955 4 6.64522 4 7.6V16.4C4 18.39 5.61 20 7.6 20H16.4C17.3548 20 18.2705 19.6207 18.9456 18.9456C19.6207 18.2705 20 17.3548 20 16.4V7.6C20 5.61 18.39 4 16.4 4H7.6ZM17.25 5.5C17.5815 5.5 17.8995 5.6317 18.1339 5.86612C18.3683 6.10054 18.5 6.41848 18.5 6.75C18.5 7.08152 18.3683 7.39946 18.1339 7.63388C17.8995 7.8683 17.5815 8 17.25 8C16.9185 8 16.6005 7.8683 16.3661 7.63388C16.1317 7.39946 16 7.08152 16 6.75C16 6.41848 16.1317 6.10054 16.3661 5.86612C16.6005 5.6317 16.9185 5.5 17.25 5.5ZM12 7C13.3261 7 14.5979 7.52678 15.5355 8.46447C16.4732 9.40215 17 10.6739 17 12C17 13.3261 16.4732 14.5979 15.5355 15.5355C14.5979 16.4732 13.3261 17 12 17C10.6739 17 9.40215 16.4732 8.46447 15.5355C7.52678 14.5979 7 13.3261 7 12C7 10.6739 7.52678 9.40215 8.46447 8.46447C9.40215 7.52678 10.6739 7 12 7ZM12 9C11.2044 9 10.4413 9.31607 9.87868 9.87868C9.31607 10.4413 9 11.2044 9 12C9 12.7956 9.31607 13.5587 9.87868 14.1213C10.4413 14.6839 11.2044 15 12 15C12.7956 15 13.5587 14.6839 14.1213 14.1213C14.6839 13.5587 15 12.7956 15 12C15 11.2044 14.6839 10.4413 14.1213 9.87868C13.5587 9.31607 12.7956 9 12 9Z" fill="white"/>
<path d="M39 2C33.48 2 29 6.48 29 12C29 17.52 33.48 22 39 22C44.52 22 49 17.52 49 12C49 6.48 44.52 2 39 2ZM43.64 8.8C43.49 10.38 42.84 14.22 42.51 15.99C42.37 16.74 42.09 16.99 41.83 17.02C41.25 17.07 40.81 16.64 40.25 16.27C39.37 15.69 38.87 15.33 38.02 14.77C37.03 14.12 37.67 13.76 38.24 13.18C38.39 13.03 40.95 10.7 41 10.49C41.0069 10.4582 41.006 10.4252 40.9973 10.3938C40.9886 10.3624 40.9724 10.3337 40.95 10.31C40.89 10.26 40.81 10.28 40.74 10.29C40.65 10.31 39.25 11.24 36.52 13.08C36.12 13.35 35.76 13.49 35.44 13.48C35.08 13.47 34.4 13.28 33.89 13.11C33.26 12.91 32.77 12.8 32.81 12.45C32.83 12.27 33.08 12.09 33.55 11.9C36.47 10.63 38.41 9.79 39.38 9.39C42.16 8.23 42.73 8.03 43.11 8.03C43.19 8.03 43.38 8.05 43.5 8.15C43.6 8.23 43.63 8.34 43.64 8.42C43.63 8.48 43.65 8.66 43.64 8.8Z" fill="white"/>
<path d="M69.073 2H62.937C57.333 2 56 3.333 56 8.927V15.063C56 20.666 57.323 22 62.927 22H69.063C74.666 22 76 20.677 76 15.073V8.937C76 3.333 74.677 2 69.073 2ZM72.146 16.27H70.687C70.135 16.27 69.969 15.823 68.979 14.833C68.115 14 67.75 13.896 67.531 13.896C67.229 13.896 67.146 13.979 67.146 14.396V15.708C67.146 16.063 67.031 16.271 66.104 16.271C65.2043 16.2105 64.3319 15.9372 63.5586 15.4735C62.7853 15.0098 62.1332 14.3691 61.656 13.604C60.5232 12.194 59.7349 10.5391 59.354 8.771C59.354 8.552 59.437 8.354 59.854 8.354H61.312C61.687 8.354 61.822 8.521 61.969 8.906C62.677 10.99 63.885 12.802 64.375 12.802C64.563 12.802 64.645 12.719 64.645 12.25V10.104C64.583 9.125 64.063 9.042 64.063 8.688C64.0697 8.59463 64.1125 8.50753 64.1823 8.44518C64.2521 8.38283 64.3435 8.35012 64.437 8.354H66.729C67.042 8.354 67.146 8.51 67.146 8.885V11.781C67.146 12.094 67.281 12.198 67.375 12.198C67.563 12.198 67.708 12.094 68.052 11.75C68.7909 10.8489 69.3945 9.84508 69.844 8.77C69.8899 8.64086 69.9769 8.5303 70.0915 8.45519C70.2062 8.38008 70.3423 8.34454 70.479 8.354H71.938C72.375 8.354 72.468 8.573 72.375 8.885C71.8445 10.0734 71.1881 11.2015 70.417 12.25C70.26 12.49 70.197 12.615 70.417 12.896C70.562 13.115 71.073 13.542 71.417 13.948C71.9169 14.4466 72.332 15.0236 72.646 15.656C72.771 16.062 72.562 16.27 72.146 16.27Z" fill="white"/>
</svg>
