<svg width="100" height="100" viewBox="0 0 100 100" fill="none" xmlns="http://www.w3.org/2000/svg">
<path d="M50 10.9375C42.2742 10.9375 34.7219 13.2285 28.2981 17.5207C21.8743 21.813 16.8675 27.9137 13.911 35.0514C10.9544 42.1892 10.1809 50.0433 11.6881 57.6207C13.1953 65.1981 16.9157 72.1584 22.3787 77.6214C27.8416 83.0844 34.8019 86.8047 42.3793 88.3119C49.9567 89.8192 57.8108 89.0456 64.9486 86.089C72.0863 83.1325 78.1871 78.1258 82.4793 71.702C86.7715 65.2782 89.0625 57.7258 89.0625 50C89.0511 39.6435 84.932 29.7144 77.6088 22.3912C70.2856 15.068 60.3565 10.9489 50 10.9375ZM50 85.9375C42.8923 85.9375 35.9441 83.8298 30.0342 79.8809C24.1243 75.9321 19.5181 70.3194 16.7981 63.7527C14.0781 57.186 13.3664 49.9601 14.753 42.9889C16.1397 36.0177 19.5624 29.6143 24.5884 24.5883C29.6143 19.5624 36.0178 16.1397 42.989 14.753C49.9602 13.3664 57.186 14.0781 63.7527 16.7981C70.3194 19.5181 75.9321 24.1243 79.881 30.0342C83.8298 35.9441 85.9375 42.8922 85.9375 50C85.9272 59.528 82.1376 68.6629 75.4002 75.4002C68.6629 82.1376 59.5281 85.9272 50 85.9375ZM32.8125 42.1875C32.8125 41.5694 32.9958 40.9652 33.3392 40.4513C33.6826 39.9374 34.1706 39.5369 34.7416 39.3004C35.3127 39.0639 35.941 39.002 36.5472 39.1225C37.1534 39.2431 37.7102 39.5408 38.1472 39.9778C38.5843 40.4148 38.8819 40.9717 39.0025 41.5778C39.1231 42.184 39.0612 42.8124 38.8246 43.3834C38.5881 43.9544 38.1876 44.4425 37.6737 44.7858C37.1598 45.1292 36.5556 45.3125 35.9375 45.3125C35.1087 45.3125 34.3139 44.9833 33.7278 44.3972C33.1418 43.8112 32.8125 43.0163 32.8125 42.1875ZM70.3125 42.1875C70.3125 42.6019 70.1479 42.9993 69.8549 43.2924C69.5618 43.5854 69.1644 43.75 68.75 43.75H59.375C58.9606 43.75 58.5632 43.5854 58.2702 43.2924C57.9771 42.9993 57.8125 42.6019 57.8125 42.1875C57.8125 41.7731 57.9771 41.3757 58.2702 41.0826C58.5632 40.7896 58.9606 40.625 59.375 40.625H68.75C69.1644 40.625 69.5618 40.7896 69.8549 41.0826C70.1479 41.3757 70.3125 41.7731 70.3125 42.1875ZM66.9766 60.1562C63.2461 66.6094 57.0586 70.3125 50 70.3125C42.9414 70.3125 36.7539 66.6094 33.0235 60.1562C32.8367 59.7992 32.795 59.3837 32.9073 58.9966C33.0196 58.6096 33.2771 58.2809 33.626 58.0792C33.9749 57.8775 34.3883 57.8185 34.7797 57.9144C35.1711 58.0102 35.5104 58.2537 35.7266 58.5938C38.9336 64.1367 44.0039 67.1875 50 67.1875C55.9961 67.1875 61.0664 64.1367 64.2735 58.5938C64.3711 58.407 64.5056 58.242 64.6687 58.1086C64.8318 57.9751 65.0202 57.8761 65.2226 57.8174C65.425 57.7587 65.6372 57.7415 65.8464 57.7669C66.0556 57.7923 66.2575 57.8598 66.4399 57.9652C66.6224 58.0707 66.7816 58.212 66.908 58.3806C67.0344 58.5492 67.1255 58.7416 67.1756 58.9463C67.2257 59.151 67.2339 59.3637 67.1997 59.5716C67.1655 59.7795 67.0896 59.9784 66.9766 60.1562Z" fill="white"/>
</svg>
