<svg width="144" height="125" viewBox="0 0 144 125" fill="none" xmlns="http://www.w3.org/2000/svg">
<path d="M74.9761 51.8962C75.4561 52.1122 75.9121 52.3762 76.3321 52.6282C76.7761 52.8922 77.1961 53.1922 77.6521 53.4922C77.7361 53.3242 77.8321 53.1802 77.8921 53.0242C79.3081 49.9882 80.8681 46.3522 82.2841 43.3162C82.2241 43.0042 82.2481 43.1242 82.1641 42.7882C81.6481 40.6642 81.0961 38.7322 80.4121 36.6682C79.8961 35.1082 79.3201 33.5602 78.6841 32.0362C78.6361 31.9042 78.6241 31.9042 78.4321 31.5562C78.4201 31.6762 78.4081 31.6882 78.4081 31.7002C77.2681 38.3482 76.1401 44.9842 75.0001 51.6322C75.0001 51.7642 75.0361 51.5002 74.9761 51.8962Z" fill="#AA7CBE"/>
<path d="M76.3679 68.7919C76.3919 69.0079 76.4039 69.2239 76.4159 69.4159C77.3279 69.0199 78.7079 67.3999 79.4159 65.8879C80.3999 63.7639 80.5799 61.5679 79.9319 59.3239C79.2839 57.0799 77.9519 55.3279 76.0199 54.0199C74.6399 53.0959 72.4319 52.5439 71.4839 52.5439C71.4839 54.0799 71.4839 55.5679 71.4839 57.1399C71.6039 57.2359 71.6159 57.2599 71.6759 57.3079C72.3719 57.8599 72.9599 58.6879 73.4519 59.4319C73.9439 60.1759 74.3399 60.9559 74.6759 61.7719C75.5279 63.8239 76.0199 65.9719 76.2959 68.1679C76.3199 68.3719 76.3439 68.5879 76.3679 68.7919Z" fill="#FEDFA6"/>
<path d="M70.1042 51.104C70.1042 50.984 70.1282 50.912 70.1282 50.816C70.1162 42.716 70.1162 34.676 70.1042 26.612C69.9242 26.552 69.8762 26.564 69.6602 26.48C69.0962 26.264 68.9282 25.904 68.9402 25.424C68.9522 25.052 69.0842 24.704 69.4082 24.5C70.1282 24.044 71.6162 23.984 72.2642 24.536C72.5882 24.872 72.5882 24.92 72.6122 25.364C72.6002 25.844 72.4202 26.144 71.9642 26.432C71.7962 26.504 71.7002 26.528 71.4842 26.612C71.4842 34.724 71.4842 42.8 71.4842 50.876C71.4842 50.948 71.4842 51.008 71.4842 51.116C72.1682 51.164 72.9242 51.272 73.6562 51.476C73.7042 51.224 73.7282 51.116 73.7522 50.948C73.9202 49.952 74.0882 48.944 74.2562 47.936C74.7362 45.116 75.2162 42.308 75.6962 39.488C76.2602 36.2 76.7282 33.332 77.3042 30.044C77.3642 29.756 77.4362 29.324 77.4362 29.324C77.0402 28.232 76.2962 26.768 75.5882 25.508C74.2922 23.108 72.8282 20.816 71.2082 18.62C71.0762 18.44 70.9682 18.296 70.7762 18.104C69.6242 19.148 64.6082 26.852 64.2002 29.36L67.9802 51.464C68.3882 51.344 69.6962 51.116 70.1042 51.104Z" fill="#914F9B"/>
<path d="M66.6963 77.0722C66.7563 77.3962 66.9003 77.6242 67.1523 77.8282C68.2443 78.7042 69.3363 79.5802 70.4283 80.4562C70.5483 80.5522 70.6683 80.6362 70.8003 80.7202C70.8843 80.6722 70.9563 80.6362 71.0163 80.6002C72.0843 79.8202 73.1403 79.0282 74.2203 78.2482C74.4363 78.0922 74.5443 77.8882 74.5923 77.6362C74.8923 76.2802 75.0723 74.9122 75.1323 73.5322C75.2523 71.2282 75.1203 68.9362 74.6883 66.6562C74.4003 65.1202 73.9923 63.6322 73.3803 62.1922C72.9843 61.2682 72.5763 60.3202 71.9643 59.5282C71.8803 59.4202 71.6043 58.9882 71.4843 58.8682C71.4963 59.1322 71.4963 59.6482 71.4963 59.8042C71.4963 61.4122 71.4963 63.0322 71.4963 64.6402C71.4963 68.3962 71.5083 72.1642 71.5083 75.9202C71.5083 76.1122 71.5203 76.3042 71.4963 76.4962C71.4483 76.9162 71.1963 77.1562 70.8363 77.1562C70.4643 77.1562 70.2123 76.9162 70.1763 76.5082C70.1523 76.3042 70.1643 76.0882 70.1643 75.8722C70.1643 70.5922 70.1523 65.3242 70.1523 60.0442C70.1523 59.7922 70.1523 59.5402 70.1523 59.3002C70.1523 59.2162 70.1523 59.1202 70.1523 58.9042C69.9723 59.0962 69.7563 59.2882 69.6363 59.4322C69.1683 59.9962 68.7843 60.6202 68.4483 61.2682C67.6803 62.7802 67.1883 64.3882 66.8283 66.0442C66.3723 68.1682 66.2043 70.3282 66.2283 72.5002C66.2643 74.0242 66.4083 75.5482 66.6963 77.0722Z" fill="#F4A02D"/>
<path d="M62.3998 55.2082C62.6638 54.8602 62.7118 54.7642 63.0118 54.4042C61.5358 51.3202 60.1438 48.8842 58.6558 45.7402C58.6318 45.8602 58.6438 45.7882 58.6078 45.9562C58.3078 47.4682 58.2958 47.6242 58.0798 49.1482C57.8518 50.6842 57.6478 52.6642 57.5278 54.1882L61.4638 56.6482C61.6678 56.2522 62.1478 55.5442 62.3998 55.2082Z" fill="#F56D94"/>
<path d="M60.8399 46.8082C61.8479 48.8482 62.8079 50.8642 63.9359 52.9522C64.0079 53.1201 64.0919 53.2642 64.1639 53.3962C64.9439 52.7962 65.6999 52.3162 66.6839 51.8482L63.0479 31.5562C61.4639 35.2042 60.5519 38.0602 59.5799 41.9122C59.4959 42.2482 59.3159 43.0882 59.2319 43.4242C59.4959 44.0122 59.6399 44.3482 59.7119 44.5042C60.2279 45.6082 60.2999 45.7882 60.8399 46.8082Z" fill="#AA7CBE"/>
<path d="M69.2278 52.6519C63.9958 53.5999 60.5998 58.6279 61.6798 63.8359C62.0878 65.8279 63.0718 67.5079 64.5718 68.8879C64.6798 68.9839 64.8358 69.0799 64.9798 69.1519C64.9918 69.0439 65.0158 68.8879 65.0278 68.7799C65.2198 67.0279 65.5318 65.2999 66.0598 63.6079C66.5038 62.1799 67.0678 60.7999 67.8838 59.5279C68.4478 58.6519 69.1078 57.8599 69.9718 57.2599C70.0318 57.2119 70.1038 57.1759 70.1158 57.1759C70.1158 56.2399 70.1038 53.0479 70.1158 52.5439C69.8158 52.5799 69.4918 52.6039 69.2278 52.6519Z" fill="#FEDFA6"/>
<path d="M78.816 54.608C79.332 55.184 79.788 55.796 80.184 56.456C80.22 56.516 80.244 56.564 80.292 56.648C81.528 55.868 82.86 55.04 84.048 54.296C83.988 53.06 83.088 46.784 82.788 45.812L78.708 54.5C78.78 54.572 78.792 54.584 78.816 54.608Z" fill="#F56D94"/>
<path d="M61.272 66.8C60.96 66.044 60.684 65.444 60.492 64.688C60.288 63.908 60.168 63.116 60.144 62.3C60.12 61.508 60.18 60.728 60.312 59.948C60.456 59.156 60.636 58.676 60.9 57.932L57.396 55.772C57.348 56.168 57.348 56.264 57.324 56.636C57.168 59.492 57.168 62.348 57.324 65.204C57.372 65.972 57.42 66.56 57.492 67.328C57.504 67.436 57.516 67.616 57.528 67.712C58.176 67.508 58.788 67.268 59.4 67.124C60 66.98 60.6 66.908 61.272 66.8Z" fill="#FE97B1"/>
<path d="M83.5439 67.6998C82.5239 68.6838 81.5519 69.6558 80.3159 70.3158C79.3079 70.8558 78.9959 70.9758 77.7839 71.3838C77.2559 71.4798 76.8479 71.5038 76.5479 71.5518C76.4879 72.7398 76.4999 73.3998 76.3919 74.5398C76.2959 75.6798 76.1999 76.0878 76.0439 77.2758C76.4279 77.4558 76.7879 77.6118 77.8079 77.6118C79.3799 77.6118 80.7839 76.7718 81.6599 75.7998C82.2359 75.1638 82.2359 75.1638 82.9559 74.2998C83.0519 74.1558 83.0159 74.2158 83.1359 74.0358C83.3159 73.0518 83.6039 71.3238 83.7359 70.3518C83.8439 69.4638 83.9279 68.5638 84.0119 67.6638C84.0239 67.5558 84.0599 67.2918 84.0479 67.1958C83.8919 67.3278 83.6399 67.6158 83.5439 67.6998Z" fill="#E9FFFE"/>
<path d="M84.1319 55.8682L80.9039 57.8962C82.3799 61.8442 81.7919 66.1522 78.7559 69.3562C79.0799 69.2602 79.2479 69.1402 79.4519 69.0202C81.1559 67.9402 82.8239 66.5242 84.1559 65.0362C84.2879 64.8802 84.2399 64.6402 84.2399 64.4482C84.2519 63.8962 84.2639 63.6442 84.2879 63.0922C84.3839 60.9082 84.2879 58.7242 84.2039 56.5402C84.1919 56.3362 84.1799 56.1682 84.1319 55.8682Z" fill="#FE97B1"/>
<path d="M78.864 85.892C77.916 86.204 77.556 86.312 76.68 86.384C76.32 86.396 75.972 86.42 75.6 86.384C74.616 86.288 73.932 86.144 72.852 85.628C72.408 85.376 72.24 85.292 71.952 85.112C71.724 84.968 71.484 84.812 71.244 84.68C70.584 84.32 69.936 83.96 69.276 83.612C68.484 83.204 67.692 82.868 66.804 82.76C66 82.664 65.148 82.844 64.356 83.036C63.276 83.3 62.556 83.636 61.56 84.092C61.464 84.128 61.152 84.296 61.02 84.368C61.62 86.072 62.172 87.44 62.916 89.024C63.384 89.096 78.168 89.228 78.564 89.168C79.164 87.86 79.488 87.128 79.98 85.76C79.992 85.712 80.088 85.484 80.196 85.184C80.1 85.268 80.004 85.316 79.752 85.484C79.476 85.64 79.344 85.7 78.864 85.892Z" fill="#78D1DF"/>
<path d="M77.5078 79.0638C77.3638 79.0638 77.0158 79.0398 76.7038 78.9678C76.2478 78.8598 76.2718 78.8118 75.8398 78.6678C75.6238 78.7758 75.0238 79.3278 74.7838 79.5078C73.7518 80.2758 72.7198 81.0318 71.6878 81.7998C71.5438 81.9078 71.4118 82.0038 71.2678 82.0998C70.9438 82.3398 70.6318 82.3158 70.3078 82.0998C70.1878 82.0158 70.0558 81.9198 69.9358 81.8238C68.7358 80.8638 67.5358 79.9038 66.3478 78.9438C66.1078 78.7518 65.9038 78.5238 65.6758 78.3198C65.5558 78.2118 65.4958 78.0918 65.4598 77.9238C65.3398 77.1918 65.2198 76.4478 65.0998 75.7158C65.0518 75.4518 65.0758 75.5838 65.0398 75.3198C64.9558 75.3198 64.8238 75.3198 64.7638 75.3198C63.0118 75.3678 61.6678 75.7878 60.1558 76.5198C59.7358 76.7238 59.3878 76.9158 59.0278 77.1558C59.1718 78.2718 60.2518 82.2558 60.5998 82.9158C60.7078 82.8798 60.8278 82.8318 60.9358 82.7838C61.5118 82.5678 61.9918 82.3518 62.5678 82.1358C63.2998 81.8478 64.0798 81.5718 64.8598 81.4638C65.2918 81.4038 65.7118 81.3678 66.1438 81.3678C67.1038 81.4278 68.0398 81.5118 68.9158 81.9198C70.2838 82.5678 71.6158 83.2998 72.9118 84.0678C73.6318 84.4518 73.9678 84.6678 75.2518 84.8958H75.2638C76.0918 84.9798 76.3318 84.9558 76.7038 84.9438C77.4358 84.9438 77.8438 84.7998 78.4318 84.5598C78.6478 84.4638 78.9838 84.2718 79.1278 84.1878C79.8478 83.7558 80.2558 83.3838 80.7958 82.8678C80.9878 82.6878 81.0718 82.5678 81.1438 82.3158C81.6118 80.7798 82.0918 79.0518 82.4638 77.4798C82.4878 77.3718 82.5598 77.1678 82.6198 76.8558C82.4518 77.0118 82.2598 77.2518 82.1758 77.3358C80.7478 78.6798 79.4758 79.0398 77.5078 79.0638Z" fill="#ABE3DD"/>
<path d="M63.9602 73.8559C64.2722 73.8439 64.5002 73.8319 64.9082 73.8199C64.9082 72.9319 64.8842 71.7559 64.8842 70.8799C64.8002 70.8079 64.7522 70.7599 64.7042 70.7239C63.7802 70.0639 62.9642 69.2839 62.2802 68.3719C62.2202 68.2999 62.1962 68.2519 62.1482 68.1919C61.6202 68.2519 61.0802 68.3119 60.5882 68.3959C59.8922 68.5279 59.2442 68.7439 58.5962 68.9839C58.2962 69.0919 58.0322 69.2119 57.7202 69.3439C57.8762 71.0959 58.1762 72.9439 58.4882 74.6839C58.5122 74.8279 58.6082 75.3319 58.6442 75.4999C58.7522 75.4399 58.9322 75.3199 59.0162 75.2839C59.3882 75.1279 59.5562 75.0079 59.9642 74.8639C61.5002 74.2639 62.5442 73.9759 63.9602 73.8559Z" fill="#E9FFFE"/>
<path d="M85.5358 65.7078C85.6438 63.8118 85.7278 61.9158 85.6918 60.0198C85.6438 57.7038 85.5358 55.3758 85.2958 53.0718C85.0678 50.8998 84.7678 48.7278 84.3718 46.5798C83.6158 42.4758 82.5478 38.4678 81.1318 34.5438C78.7918 28.0638 75.5998 22.0278 71.3758 16.5678C71.1838 16.3398 71.0038 16.0998 70.8118 15.8838C70.4278 16.2678 70.1398 16.6398 69.8038 17.0598C66.5878 21.2838 63.9958 25.8558 61.9198 30.7278C58.5958 38.5278 56.7118 46.6758 56.0758 55.1118C55.8838 57.6798 55.8118 60.2478 55.8838 62.8158C55.9558 65.2878 56.1238 67.7598 56.4238 70.2198C56.7118 72.6198 57.1318 74.9958 57.6598 77.3598C58.6318 81.6918 60.0118 85.8918 61.8358 89.9478C61.9078 90.1158 62.0038 90.2838 62.0878 90.4398C67.8718 90.4998 73.6198 90.5478 79.4038 90.6078C79.4758 90.4518 79.5718 90.2838 79.6438 90.1158C82.4278 84.0318 84.1438 77.6478 85.0318 71.0358C85.2598 69.2598 85.4278 67.4838 85.5358 65.7078ZM84.0478 54.2958C82.8598 55.0398 81.5278 55.8798 80.2918 56.6478C80.2438 56.5518 80.2198 56.5158 80.1838 56.4558C79.7878 55.7958 79.3318 55.1838 78.8158 54.6078C78.7918 54.5838 78.7798 54.5598 78.7198 54.4998L82.7998 45.8118C83.0878 46.7838 83.9878 53.0718 84.0478 54.2958ZM70.1038 57.1758C70.0918 57.1758 70.0318 57.2118 69.9598 57.2598C69.0958 57.8598 68.4358 58.6518 67.8718 59.5278C67.0558 60.7998 66.4918 62.1678 66.0478 63.6078C65.5198 65.2998 65.2078 67.0278 65.0158 68.7798C65.0038 68.8878 64.9798 69.0438 64.9678 69.1518C64.8238 69.0798 64.6678 68.9838 64.5598 68.8878C63.0598 67.5078 62.0758 65.8278 61.6678 63.8358C60.5998 58.6158 63.9958 53.5998 69.2158 52.6518C69.4798 52.6038 69.7918 52.5918 70.0918 52.5558C70.1038 53.0478 70.1038 56.2398 70.1038 57.1758ZM66.8278 66.0318C67.1758 64.3758 67.6678 62.7678 68.4478 61.2558C68.7838 60.6078 69.1678 59.9838 69.6358 59.4198C69.7558 59.2758 69.9718 59.0718 70.1518 58.8918C70.1518 59.0958 70.1398 59.1918 70.1518 59.2878C70.1638 59.5398 70.1518 59.7918 70.1518 60.0318C70.1518 65.3118 70.1638 70.5798 70.1638 75.8598C70.1638 76.0758 70.1518 76.2798 70.1758 76.4958C70.2118 76.9038 70.4638 77.1438 70.8358 77.1438C71.1958 77.1438 71.4478 76.9038 71.4958 76.4838C71.5198 76.2918 71.5078 76.0998 71.5078 75.9078C71.5078 72.1518 71.4958 68.3838 71.4958 64.6278C71.4958 63.0198 71.4958 61.3998 71.4958 59.7918C71.4958 59.6238 71.4958 59.1198 71.4838 58.8558C71.6038 58.9878 71.8678 59.4078 71.9638 59.5158C72.5878 60.3078 72.9958 61.2678 73.3798 62.1798C73.9918 63.6198 74.3998 65.1078 74.6878 66.6438C75.1198 68.9238 75.2398 71.2158 75.1318 73.5198C75.0598 74.8998 74.8918 76.2678 74.5918 77.6238C74.5318 77.8878 74.4358 78.0798 74.2198 78.2358C73.1518 79.0158 72.0838 79.8078 71.0158 80.5878C70.9558 80.6358 70.8838 80.6598 70.7998 80.7078C70.6798 80.6238 70.5478 80.5398 70.4278 80.4438C69.3358 79.5678 68.2438 78.6798 67.1518 77.8158C66.8998 77.6118 66.7558 77.3838 66.6958 77.0598C66.4198 75.5478 66.2638 74.0238 66.2398 72.4878C66.2038 70.3158 66.3718 68.1558 66.8278 66.0318ZM74.6758 61.7718C74.3398 60.9558 73.9318 60.1758 73.4518 59.4318C72.9598 58.6878 72.3838 57.8598 71.6758 57.3078C71.6158 57.2598 71.5918 57.2358 71.4838 57.1398C71.4838 55.5678 71.4838 54.0798 71.4838 52.5438C72.4318 52.5438 74.6398 53.0958 76.0198 54.0198C77.9638 55.3158 79.2838 57.0798 79.9318 59.3238C80.5798 61.5678 80.3998 63.7638 79.4158 65.8878C78.7198 67.4118 77.3398 69.0198 76.4158 69.4158C76.3918 69.2118 76.3798 69.0078 76.3678 68.7918C76.3318 68.5878 76.3078 68.3718 76.2838 68.1678C76.0198 65.9598 75.5278 63.8238 74.6758 61.7718ZM78.4438 31.5678C78.6358 31.9038 78.6478 31.9158 78.6958 32.0478C79.3318 33.5718 79.8958 35.1078 80.4238 36.6798C81.1198 38.7558 81.6598 40.6758 82.1758 42.7998C82.2598 43.1358 82.2238 43.0158 82.2958 43.3278C80.8798 46.3638 79.3078 49.9878 77.9038 53.0358C77.8318 53.1918 77.7478 53.3358 77.6638 53.5038C77.1958 53.2038 76.7758 52.9038 76.3438 52.6398C75.9118 52.3878 75.4678 52.1238 74.9878 51.9078C75.0478 51.5118 75.0118 51.7758 75.0238 51.6558C76.1518 45.0078 77.2918 38.3598 78.4318 31.7238C78.4198 31.6878 78.4318 31.6758 78.4438 31.5678ZM70.7878 18.1038C70.9798 18.2958 71.0878 18.4398 71.2198 18.6198C72.8398 20.8158 74.3038 23.1078 75.5998 25.5078C76.3078 26.7678 77.0518 28.2318 77.4478 29.3238C77.4478 29.3238 77.3758 29.7558 77.3158 30.0438C76.7518 33.3318 76.2718 36.1998 75.7078 39.4878C75.2278 42.3078 74.7478 45.1158 74.2678 47.9358C74.0998 48.9318 73.9318 49.9398 73.7638 50.9478C73.7398 51.1158 73.7158 51.2358 73.6678 51.4758C72.9358 51.2838 72.1798 51.1638 71.4958 51.1158C71.4958 51.0078 71.4958 50.9478 71.4958 50.8758C71.4958 42.7998 71.4958 34.7238 71.4958 26.6118C71.7118 26.5278 71.8078 26.5038 71.9758 26.4318C72.4198 26.1558 72.6118 25.8438 72.6238 25.3638C72.5998 24.9078 72.5998 24.8598 72.2758 24.5358C71.6278 23.9838 70.1398 24.0318 69.4198 24.4998C69.0958 24.7038 68.9638 25.0518 68.9518 25.4238C68.9398 25.9038 69.1078 26.2518 69.6718 26.4798C69.8878 26.5638 69.9478 26.5638 70.1158 26.6118C70.1278 34.6878 70.1278 42.7278 70.1398 50.8158C70.1398 50.9118 70.1278 50.9838 70.1158 51.1038C69.7078 51.1278 68.3998 51.3438 68.0038 51.4638L64.2118 29.3598C64.6318 26.8518 69.6358 19.1478 70.7878 18.1038ZM59.5678 41.9118C60.5398 38.0598 61.4518 35.2038 63.0358 31.5558L66.6718 51.8478C65.6998 52.3158 64.9318 52.7958 64.1518 53.3958C64.0798 53.2638 63.9958 53.1078 63.9238 52.9518C62.8078 50.8638 61.8358 48.8478 60.8278 46.8078C60.2878 45.7878 60.2158 45.6078 59.6878 44.5158C59.6158 44.3598 59.4718 44.0238 59.2078 43.4358C59.3038 43.0878 59.4838 42.2598 59.5678 41.9118ZM58.0918 49.1598C58.3078 47.6358 58.3198 47.4918 58.6198 45.9678C58.6438 45.7998 58.6438 45.8718 58.6678 45.7518C60.1438 48.8958 61.5478 51.3318 63.0238 54.4158C62.7238 54.7758 62.6758 54.8718 62.4118 55.2198C62.1478 55.5558 61.6678 56.2518 61.4878 56.6598L57.5398 54.1998C57.6598 52.6878 57.8638 50.6958 58.0918 49.1598ZM57.5278 67.7118C57.5158 67.6158 57.5038 67.4358 57.4918 67.3278C57.4318 66.5598 57.3718 65.9718 57.3238 65.2038C57.1678 62.3478 57.1678 59.4918 57.3238 56.6358C57.3478 56.2518 57.3478 56.1678 57.3958 55.7718L60.8998 57.9318C60.6358 58.6758 60.4438 59.1558 60.3118 59.9478C60.1798 60.7278 60.1078 61.5078 60.1438 62.2998C60.1798 63.1038 60.2998 63.8958 60.4918 64.6878C60.6838 65.4438 60.9598 66.0558 61.2718 66.7998C60.5998 66.9078 59.9998 66.9798 59.3998 67.1238C58.7758 67.2678 58.1758 67.5078 57.5278 67.7118ZM58.6318 75.5118C58.5958 75.3438 58.4998 74.8398 58.4758 74.6958C58.1758 72.9558 57.8638 71.1078 57.7078 69.3558C58.0198 69.2238 58.2838 69.1038 58.5838 68.9958C59.2318 68.7558 59.8798 68.5278 60.5758 68.4078C61.0678 68.3238 61.6078 68.2638 62.1358 68.2038C62.1838 68.2638 62.2198 68.2998 62.2678 68.3838C62.9518 69.2958 63.7678 70.0758 64.6918 70.7358C64.7398 70.7718 64.7758 70.8078 64.8718 70.8918C64.8718 71.7678 64.8958 72.9438 64.8958 73.8318C64.4758 73.8438 64.2478 73.8438 63.9478 73.8678C62.5318 73.9878 61.4998 74.2758 59.9398 74.8878C59.5318 75.0438 59.3638 75.1518 58.9918 75.3078C58.9198 75.3318 58.7398 75.4638 58.6318 75.5118ZM79.9678 85.7598C79.4758 87.1278 79.1638 87.8598 78.5518 89.1678C78.1558 89.2278 63.3718 89.0958 62.9038 89.0238C62.1598 87.4398 61.6078 86.0718 61.0078 84.3678C61.1278 84.2958 61.4398 84.1278 61.5478 84.0918C62.5438 83.6358 63.2638 83.2878 64.3438 83.0358C65.1358 82.8438 65.9878 82.6638 66.7918 82.7598C67.6798 82.8678 68.4718 83.2158 69.2638 83.6118C69.9238 83.9478 70.5838 84.3198 71.2318 84.6798C71.4718 84.8118 71.7118 84.9678 71.9398 85.1118C72.2398 85.2918 72.3958 85.3638 72.8398 85.6278C73.9198 86.1318 74.6038 86.2878 75.5878 86.3838C75.9478 86.4198 76.2958 86.3958 76.6678 86.3838C77.5438 86.3238 77.9038 86.2038 78.8518 85.8918C79.3318 85.6998 79.4638 85.6398 79.7398 85.4838C79.9918 85.3158 80.0878 85.2678 80.1838 85.1838C80.0758 85.4838 79.9918 85.7118 79.9678 85.7598ZM82.4758 77.4438C82.1158 79.0158 81.6238 80.7438 81.1558 82.2798C81.0838 82.5318 80.9878 82.6518 80.8078 82.8318C80.2678 83.3478 79.8598 83.7198 79.1398 84.1518C78.9958 84.2358 78.6598 84.4278 78.4438 84.5238C77.8558 84.7638 77.4478 84.9078 76.7158 84.9078C76.3438 84.9198 76.1038 84.9438 75.2758 84.8598H75.2638C73.9798 84.6318 73.6438 84.4158 72.9238 84.0318C71.6158 83.2638 70.2958 82.5318 68.9278 81.8838C68.0518 81.4638 67.1158 81.3798 66.1558 81.3318C65.7238 81.3318 65.3038 81.3678 64.8718 81.4278C64.0918 81.5358 63.3118 81.8118 62.5798 82.0998C62.0038 82.3278 61.5238 82.5318 60.9478 82.7478C60.8398 82.7958 60.7198 82.8438 60.6118 82.8798C60.2638 82.2318 59.1718 78.2478 59.0398 77.1198C59.4118 76.8798 59.7478 76.6758 60.1678 76.4838C61.6798 75.7518 63.0238 75.3318 64.7758 75.2838C64.8358 75.2838 64.9678 75.2718 65.0518 75.2838C65.0878 75.5478 65.0758 75.4158 65.1118 75.6798C65.2318 76.4118 65.3518 77.1558 65.4718 77.8878C65.4958 78.0558 65.5678 78.1758 65.6878 78.2838C65.9158 78.4878 66.1198 78.7158 66.3598 78.9078C67.5478 79.8678 68.7478 80.8278 69.9478 81.7878C70.0678 81.8838 70.1878 81.9798 70.3198 82.0638C70.6318 82.2918 70.9558 82.3038 71.2798 82.0638C71.4238 81.9558 71.5558 81.8598 71.6998 81.7638C72.7318 80.9958 73.7758 80.2398 74.7958 79.4718C75.0238 79.2918 75.6358 78.7518 75.8518 78.6318C76.2958 78.7758 76.2598 78.8238 76.7158 78.9318C77.0278 79.0038 77.3758 79.0278 77.5198 79.0278C79.4878 79.0038 80.7718 78.6438 82.2118 77.2638C82.2958 77.1918 82.4878 76.9518 82.6558 76.7838C82.5718 77.1438 82.4998 77.3478 82.4758 77.4438ZM84.0238 67.6758C83.9398 68.5758 83.8558 69.4638 83.7478 70.3638C83.6278 71.3358 83.3278 73.0638 83.1478 74.0478C83.0278 74.2278 83.0758 74.1678 82.9678 74.3118C82.2478 75.1758 82.2478 75.1758 81.6718 75.8118C80.7958 76.7838 79.3798 77.6238 77.8198 77.6238C76.7998 77.6238 76.4398 77.4678 76.0558 77.2878C76.2118 76.0878 76.3078 75.6918 76.4038 74.5518C76.4998 73.4118 76.4998 72.7518 76.5598 71.5638C76.8478 71.5158 77.2678 71.4918 77.7958 71.3958C79.0078 70.9878 79.3198 70.8678 80.3278 70.3278C81.5638 69.6678 82.5358 68.6838 83.5558 67.7118C83.6518 67.6278 83.9038 67.3398 84.0718 67.2078C84.0598 67.3038 84.0238 67.5678 84.0238 67.6758ZM84.2998 63.0678C84.2758 63.6198 84.2638 63.8598 84.2518 64.4238C84.2518 64.6278 84.3118 64.8678 84.1678 65.0118C82.8358 66.4998 81.1678 67.9158 79.4638 68.9958C79.2598 69.1158 79.0918 69.2358 78.7678 69.3318C81.8038 66.1398 82.3798 61.8318 80.9158 57.8718L84.1438 55.8438C84.1918 56.1438 84.2038 56.3118 84.2158 56.4918C84.2998 58.6998 84.3958 60.8838 84.2998 63.0678Z" fill="black"/>
<path d="M52.0321 73.8438C51.7321 72.0918 51.4681 70.3278 51.3241 68.5398C51.2041 67.0878 51.0721 65.6358 51.0121 64.1838C50.8801 61.0158 50.9281 57.8598 51.2161 54.7038C51.3601 53.1558 51.5161 51.6078 51.7321 50.0718C52.0321 47.8278 52.4641 45.6078 52.9921 43.4118C53.0881 42.9918 52.9441 43.6398 53.2081 42.4398C52.8841 42.3918 52.1761 42.2238 51.9001 42.1758C51.7921 42.5478 51.7681 42.6918 51.7081 42.9318C51.0481 45.7518 50.5321 48.5958 50.1841 51.4758C49.8841 53.8998 49.6921 56.3238 49.6321 58.7598C49.5241 62.8638 49.6921 66.9678 50.2321 71.0478C50.6281 74.0358 51.1921 76.9878 51.9601 79.9038C52.8721 83.3958 54.0601 86.7918 55.5481 90.0798C55.6321 90.2718 55.6801 90.3678 55.8241 90.6318C56.2201 90.6318 56.6281 90.6318 57.1801 90.6198L56.4481 88.7718C54.3601 83.9598 52.9201 78.9918 52.0321 73.8438Z" fill="black"/>
<path d="M50.976 39.1762C51.48 39.3922 52.008 39.5842 52.548 39.7162C53.004 39.8362 53.364 39.6322 53.592 39.2002C53.688 39.0082 53.748 38.8162 53.82 38.6122C54.324 37.1602 54.816 35.7082 55.32 34.2682C55.392 34.0762 55.416 33.8602 55.596 33.6802C55.932 33.8002 56.292 33.8362 56.58 34.0882C55.872 36.2002 55.128 38.2642 54.432 40.3762C54.804 40.5322 55.116 40.6402 55.452 40.7482C55.488 40.6282 55.548 40.4722 55.596 40.3642C56.268 38.4082 56.94 36.4522 57.612 34.4962C57.66 34.3522 57.708 34.2082 57.72 34.0522C57.78 33.6202 57.624 33.2722 57.228 33.1042C56.7 32.8882 56.16 32.6842 55.608 32.5402C55.164 32.4202 54.828 32.6122 54.612 33.0322C54.528 33.2002 54.456 33.3802 54.396 33.5602C53.868 35.0962 53.328 36.6442 52.8 38.1802C52.752 38.3242 52.68 38.4442 52.608 38.5882C52.248 38.4802 51.996 38.3842 51.588 38.1922C51.66 37.9762 51.72 37.7842 51.792 37.5802C52.392 35.8162 53.004 34.0642 53.604 32.3002C53.652 32.1562 53.748 32.0242 53.652 31.8322C53.376 31.7122 53.088 31.5922 52.728 31.5562C52.668 31.6762 52.608 31.7962 52.56 31.9162C51.888 33.8602 51.228 35.7922 50.556 37.7362C50.508 37.8802 50.46 38.0242 50.448 38.1802C50.388 38.6602 50.532 38.9842 50.976 39.1762Z" fill="black"/>
<path d="M89.7597 38.4441C88.7997 38.6961 87.8277 38.9481 86.8677 39.2121C86.6877 39.2601 86.4957 39.3201 86.3277 39.4041C85.9557 39.5841 85.7997 39.8961 85.8237 40.2921C85.8357 40.4601 85.8837 40.6281 85.9197 40.7961C86.3757 42.5001 86.8317 44.2041 87.2877 45.9081C87.3357 46.0761 87.3837 46.2441 87.4557 46.3881C87.6237 46.7241 87.8997 46.9041 88.4277 46.8801C88.4637 46.8681 88.6317 46.8441 88.7997 46.8081C89.7837 46.5441 90.7677 46.2921 91.7397 46.0281C91.8717 45.9921 92.0037 45.9561 92.1237 45.9081C92.6517 45.6921 92.8557 45.3201 92.7597 44.7681C92.7357 44.6601 92.7117 44.5401 92.6757 44.4321C92.2197 42.7281 91.7637 41.0241 91.3077 39.3201C91.2597 39.1401 91.1877 38.9481 91.1037 38.7801C90.9477 38.4801 90.6957 38.3241 90.3597 38.3361C90.1797 38.3601 89.9637 38.3841 89.7597 38.4441ZM91.6557 44.8881C90.6237 45.2001 89.4957 45.4761 88.4277 45.7641C88.4037 45.6801 88.3797 45.6081 88.3557 45.5481C87.9117 43.8801 87.4677 42.2241 87.0237 40.5561C87.0117 40.5081 87.0117 40.5081 86.9757 40.3881C87.9357 40.0881 88.9557 39.8121 89.9277 39.5361C90.0117 39.5121 90.0957 39.5001 90.1797 39.4881C90.4077 39.9561 91.5237 44.3961 91.6557 44.8881Z" fill="black"/>
<path d="M92.2441 47.144C92.1481 47.156 92.0521 47.168 91.9561 47.18C91.2361 47.276 90.5161 47.372 89.7961 47.48C89.3761 47.54 88.9561 47.588 88.5481 47.696C88.0561 47.816 87.8521 48.116 87.8521 48.62C87.8521 48.872 87.8881 49.112 87.9121 49.364C88.1041 50.732 88.2961 52.1 88.4881 53.468C88.5361 53.852 88.6081 54.224 88.6681 54.608C88.7401 55.076 89.0761 55.472 89.7361 55.424C89.8321 55.412 89.9281 55.412 90.0241 55.4C90.9361 55.268 91.8481 55.136 92.7601 55.004C92.9641 54.98 93.1801 54.956 93.3841 54.908C93.9721 54.764 94.2241 54.428 94.2001 53.828C94.2001 53.696 94.1641 53.564 94.1521 53.432C93.9841 52.184 93.8041 50.924 93.6241 49.676C93.5521 49.124 93.4801 48.572 93.3841 48.032C93.2641 47.372 92.8921 47.096 92.2441 47.144ZM93.0841 53.816C93.0241 53.828 93.0001 53.828 92.8921 53.852C91.9321 53.996 90.9601 54.128 90.0001 54.26C89.9281 54.272 89.8681 54.284 89.7841 54.284C89.6521 53.732 89.0641 49.376 88.9921 48.776C89.5201 48.692 90.0961 48.572 90.6361 48.488C91.1641 48.404 91.7521 48.344 92.3161 48.26C92.3401 48.404 92.3401 48.476 92.3641 48.596C92.5921 50.228 92.8201 51.848 93.0481 53.48C93.0601 53.576 93.0841 53.732 93.0841 53.816Z" fill="black"/>
<path d="M90.5279 83.4199C90.3599 83.3239 90.1799 83.2519 89.9999 83.1799C89.0879 82.8439 88.1639 82.5079 87.2399 82.1839C87.0719 82.1239 86.9159 82.0639 86.7479 82.0279C86.3519 81.9439 86.0279 82.0759 85.7999 82.4239C85.7039 82.5679 85.6319 82.7239 85.5719 82.8919C84.9479 84.5839 84.3359 86.2759 83.7239 87.9679C83.6639 88.1239 83.6279 88.3039 83.6039 88.3759C83.5679 88.8679 83.6999 89.1319 84.0359 89.3359C84.1799 89.4199 84.3479 89.4919 84.5039 89.5519C85.4519 89.8999 86.4119 90.2479 87.3719 90.5959C87.5159 90.6439 87.6599 90.6919 87.8159 90.7279C88.2359 90.7999 88.5719 90.6679 88.7879 90.2839C88.8719 90.1399 88.9439 89.9719 89.0039 89.8159C89.6039 88.1839 90.2039 86.5399 90.7919 84.8959C90.8519 84.7399 90.9119 84.5719 90.9359 84.4039C91.0439 83.9839 90.8999 83.6479 90.5279 83.4199ZM87.8999 89.5759C87.3839 89.4079 86.8679 89.2159 86.3639 89.0239C85.8479 88.8319 85.3319 88.6519 84.7559 88.3999C85.3919 86.6359 86.0399 84.8839 86.6759 83.1559C87.2279 83.3359 87.7319 83.5399 88.2479 83.7199C88.7639 83.9119 89.3159 84.1159 89.8199 84.3319C89.6519 84.8359 88.1999 88.8319 87.8999 89.5759Z" fill="black"/>
<path d="M94.4038 57.8C94.4038 57.644 94.4038 57.488 94.3798 57.344C94.2958 56.72 94.0438 56.48 93.4198 56.408C93.3478 56.396 93.2638 56.396 93.1918 56.396C92.1238 56.396 91.0438 56.396 89.9758 56.396C89.0518 56.396 88.7998 56.876 88.7998 57.608C88.8118 59.696 88.7998 61.784 88.7998 63.872C88.7998 63.98 88.7998 64.076 88.7998 64.232C89.1478 64.232 89.5798 64.232 89.8918 64.22C89.9038 63.98 89.9038 63.788 89.9038 63.584C89.9038 61.784 89.9038 59.984 89.9038 58.184C89.9038 57.98 89.8918 57.86 89.9158 57.632C89.9158 57.596 89.9158 57.524 90.1198 57.512C91.0918 57.512 92.0758 57.512 93.0478 57.512C93.1558 57.512 93.2758 57.524 93.2638 57.596C93.2638 57.728 93.2638 57.752 93.2758 57.896C93.2758 59.528 93.2758 61.16 93.2758 62.78C93.2758 62.888 93.2758 62.996 93.2758 63.116C92.5438 63.14 91.7758 63.14 91.0558 63.164C91.0558 63.548 91.0558 63.92 91.0558 64.232C92.0638 64.22 93.9238 64.208 94.3798 64.184C94.3798 64.028 94.3798 63.836 94.3798 63.668C94.4038 61.712 94.4038 59.756 94.4038 57.8Z" fill="black"/>
<path d="M83.7722 30.8718C83.6882 30.9078 83.6042 30.9558 83.5202 31.0038C83.2082 31.2198 83.0762 31.5198 83.1362 31.9038C83.1722 32.0958 83.2322 32.2758 83.2922 32.4558C83.9882 34.3638 84.6722 36.2718 85.3802 38.1798C85.4282 38.2998 85.4642 38.4318 85.5242 38.5518C85.8722 38.4318 86.2202 38.3118 86.5562 38.1798C86.4842 37.9758 86.4122 37.7598 86.3402 37.5798C85.7042 35.8278 85.0682 34.0878 84.4322 32.3358C84.3842 32.1918 84.2642 31.9878 84.3602 31.8438C84.3722 31.8198 84.3962 31.8078 84.4082 31.8078C84.5162 31.7598 84.8762 31.5918 85.2122 31.5438C85.3442 31.5198 85.3442 31.5918 85.3562 31.6518C86.1242 33.7278 86.8562 35.7678 87.6362 37.8078C87.7322 37.7718 87.7682 37.7478 87.8282 37.7358C88.7522 37.3998 89.6642 37.0638 90.5762 36.7278C90.6362 36.7038 90.6722 36.6798 90.7562 36.6558C90.6362 36.3318 90.4922 35.9718 90.3722 35.6478C90.2282 35.6958 90.1082 35.7318 89.9882 35.7798C89.5562 35.9358 89.1242 36.0918 88.6922 36.2478C88.5722 36.2838 88.4762 36.3318 88.3082 36.3678C87.9722 35.4438 87.6242 34.5078 87.3002 33.6078C87.2402 33.4398 87.3122 33.3078 87.3842 33.1758C87.6242 32.6598 87.8762 32.1318 88.1162 31.6158C88.2722 31.2678 88.4282 30.9198 88.5842 30.5958C88.4402 30.1878 88.2962 29.8398 88.1162 29.3838C87.6122 30.2838 87.2882 31.1718 86.7842 32.0958C86.7002 31.9158 86.6642 31.8318 86.6162 31.7478C86.5082 31.4838 86.4122 31.2318 86.3042 30.9438C86.0522 30.4158 85.6922 30.2358 85.1402 30.3918C84.6602 30.5238 84.2162 30.7158 83.7722 30.8718Z" fill="black"/>
<path d="M58.6201 21.9441C58.7641 21.7401 58.8841 21.5961 58.9921 21.4401C60.0481 19.9281 61.1041 18.4281 62.1601 16.9161C62.2801 16.7601 62.2801 16.7601 62.4841 16.4721C62.8441 16.7241 62.9761 16.7961 63.3961 17.1081C63.2761 17.2881 63.1801 17.4441 63.0721 17.6001C62.0161 19.1121 60.9601 20.6121 59.9041 22.1241C59.7961 22.2801 59.7001 22.4361 59.6041 22.6041C59.7121 22.6881 59.7721 22.7481 59.8561 22.8081C60.6481 23.3601 61.4281 23.9001 62.2201 24.4401C62.2321 24.4521 62.2801 24.4761 62.3161 24.5001C62.3401 24.4761 62.3281 24.4881 62.3761 24.4281C62.5681 24.1521 62.7121 23.9241 62.9161 23.6121C62.2081 23.0961 62.0041 22.9641 61.1641 22.3161C61.2721 22.1481 61.3801 21.9801 61.4881 21.8241C62.3881 20.5401 63.2881 19.2441 64.1881 17.9601C64.3321 17.7561 64.4521 17.5401 64.5601 17.3121C64.6921 17.0241 64.6201 16.7481 64.4281 16.4961C64.3321 16.3761 64.2241 16.2681 64.1041 16.1841C63.7921 15.9561 63.4801 15.7401 63.1681 15.5241C63.0601 15.4521 62.9401 15.3921 62.8081 15.3321C62.4721 15.1761 62.1601 15.2481 61.8961 15.4881C61.7401 15.6321 61.6081 15.8001 61.4881 15.9681C60.3241 17.6361 59.1481 19.2921 57.9841 20.9601C57.9121 21.0681 57.8521 21.1761 57.7681 21.2961C57.8521 21.3681 57.9001 21.4281 57.9601 21.4761C58.1521 21.6201 58.3561 21.7641 58.6201 21.9441Z" fill="black"/>
<path d="M77.5556 18.1282C77.9996 18.7522 78.4676 19.3642 78.8996 19.9882C80.8556 22.7962 82.5356 25.7482 83.9996 28.8322C84.1196 29.0482 84.1796 29.1562 84.3236 29.3842C84.6476 29.2162 84.9716 29.0482 85.2956 28.8802C85.3436 28.8562 85.3796 28.8322 85.4516 28.7962C85.3916 28.6402 85.3076 28.4482 85.2356 28.2922C83.2556 24.1042 80.8916 20.1562 77.9996 16.5202C77.7716 16.2682 77.7716 16.2802 77.6516 16.1602C77.6036 16.1122 77.4716 16.0282 77.4236 15.9922C77.4236 16.1122 77.4236 16.1362 77.4236 16.1722C77.4116 16.7242 77.4116 17.3962 77.4116 17.9482C77.4956 18.0442 77.4956 18.0442 77.5556 18.1282Z" fill="black"/>
<path d="M92.6639 74.5282C92.5439 74.4802 92.4119 74.4442 92.2799 74.4082C91.0559 74.0842 89.8439 73.7602 88.6199 73.4242C88.4879 73.3882 88.3679 73.3522 88.1999 73.3042C88.1039 73.6762 88.0079 74.0122 87.9119 74.3482C88.0919 74.4082 88.2479 74.4682 88.4159 74.5042C89.5439 74.8042 90.6719 75.1162 91.7999 75.4162C91.9199 75.4522 92.0399 75.5122 92.1839 75.5602C92.1599 75.7042 92.1599 75.8122 92.1239 75.9202C91.7039 77.4922 91.2839 79.0642 90.8639 80.6362C90.8399 80.7442 90.7679 80.8402 90.7199 80.9602C89.2919 80.5762 87.8879 80.2042 86.4839 79.8322C86.3759 80.2042 86.2799 80.5402 86.1719 80.8762C86.2799 80.9122 86.3759 80.9362 86.4599 80.9602C87.7919 81.3202 89.1239 81.6802 90.4559 82.0282C90.5879 82.0642 90.7199 82.0882 90.8519 82.0882C91.2599 82.1122 91.5599 81.9322 91.7279 81.5602C91.8119 81.3922 91.8719 81.2002 91.9199 81.0202C92.3639 79.3762 92.7959 77.7322 93.2399 76.0882C93.2879 75.9202 93.3239 75.7522 93.3479 75.5842C93.3839 75.0442 93.1799 74.7322 92.6639 74.5282Z" fill="black"/>
<path d="M57.5163 31.9399C57.6363 31.9999 57.7683 32.0359 57.9003 32.0599C58.2963 32.1559 58.6203 32.0239 58.8483 31.6879C58.9443 31.5439 59.0283 31.3879 59.1003 31.2319C59.8443 29.6479 60.5763 28.0639 61.3083 26.4919C61.3803 26.3359 61.4523 26.1799 61.5003 26.0119C61.6083 25.6039 61.4883 25.2439 61.1283 25.0039C60.9723 24.8959 60.7923 24.8119 60.6243 24.7279C59.4843 24.1879 58.3323 23.6599 57.1803 23.1199C57.0603 23.0599 56.9403 23.0119 56.8083 22.9639C56.6043 23.2759 56.4603 23.5879 56.3403 23.9479C57.0123 24.2599 57.6723 24.5719 58.3323 24.8839C59.0043 25.2079 59.6883 25.4839 60.3483 25.8439C60.3123 25.9519 60.2883 26.0239 60.2643 26.0959C59.5563 27.6199 58.8363 29.1559 58.1283 30.6799C58.0923 30.7639 58.0203 30.8239 57.9603 30.9079C56.6043 30.2959 55.3083 29.6599 53.9643 29.0719C53.7603 29.3839 53.6163 29.6959 53.5083 30.0199C53.5923 30.0679 53.6403 30.1279 53.7123 30.1519C54.9843 30.7519 56.2443 31.3519 57.5163 31.9399Z" fill="black"/>
<path d="M89.8917 67.5322C89.9517 66.8842 90.0237 66.2362 90.0837 65.5882C90.0957 65.5042 90.1317 65.3962 89.9637 65.3242C89.6877 65.5162 89.4237 65.7562 89.1357 65.9842C88.9917 66.0922 88.9077 66.2362 88.8957 66.4162C88.8597 66.8122 88.8117 67.2202 88.7757 67.6162C88.6077 69.2122 88.4277 70.8202 88.2597 72.4162C88.2477 72.5002 88.2597 72.5962 88.2597 72.6802C88.3317 72.6682 88.3797 72.6802 88.4037 72.6682C88.6797 72.4522 88.9437 72.2362 89.2197 72.0322C89.3877 71.9122 89.4597 71.7442 89.4717 71.5402C89.5077 71.0602 89.5557 70.5922 89.6157 70.1122C89.6277 69.9682 89.6517 69.7882 89.6757 69.5962C90.4077 69.6682 91.1757 69.7642 91.9077 69.8362C92.6637 69.9082 93.3237 69.9922 94.0557 70.0762C94.1157 69.6802 94.1637 69.3682 94.1757 68.9722C92.7357 68.8162 91.3077 68.6602 89.8077 68.5042C89.8437 68.1442 89.8677 67.8322 89.8917 67.5322Z" fill="black"/>
</svg>
