<?xml version="1.0" encoding="UTF-8"?>
<svg xmlns="http://www.w3.org/2000/svg" width="60" height="100" viewBox="0 0 60 100" fill="none">
  <path d="M33.9758 48.8962C34.4558 49.1122 34.9118 49.3762 35.3318 49.6282C35.7758 49.8922 36.1958 50.1922 36.6518 50.4922C36.7358 50.3242 36.8318 50.1802 36.8918 50.0242C38.3078 46.9882 39.8678 43.3522 41.2838 40.3162C41.2238 40.0042 41.2478 40.1242 41.1638 39.7882C40.6478 37.6642 40.0958 35.7322 39.4118 33.6682C38.8958 32.1082 38.3198 30.5602 37.6838 29.0362C37.6358 28.9042 37.6238 28.9042 37.4318 28.5562C37.4198 28.6762 37.4078 28.6882 37.4078 28.7002C36.2678 35.3482 35.1398 41.9842 33.9998 48.6322C33.9998 48.7642 34.0358 48.5002 33.9758 48.8962Z" fill="#AA7CBE"></path>
  <path d="M35.3681 65.7919C35.3921 66.0079 35.4041 66.2239 35.4161 66.4159C36.3281 66.0199 37.7081 64.3999 38.4161 62.8879C39.4001 60.7639 39.5801 58.5679 38.9321 56.3239C38.2841 54.0799 36.9521 52.3279 35.0201 51.0199C33.6401 50.0959 31.4321 49.5439 30.4841 49.5439C30.4841 51.0799 30.4841 52.5679 30.4841 54.1399C30.6041 54.2359 30.6161 54.2599 30.6761 54.3079C31.3721 54.8599 31.9601 55.6879 32.4521 56.4319C32.9441 57.1759 33.3401 57.9559 33.6761 58.7719C34.5281 60.8239 35.0201 62.9719 35.2961 65.1679C35.3201 65.3719 35.3441 65.5879 35.3681 65.7919Z" fill="#FEDFA6"></path>
  <path d="M29.104 48.104C29.104 47.984 29.128 47.912 29.128 47.816C29.116 39.716 29.116 31.676 29.104 23.612C28.924 23.552 28.876 23.564 28.66 23.48C28.096 23.264 27.928 22.904 27.94 22.424C27.952 22.052 28.084 21.704 28.408 21.5C29.128 21.044 30.616 20.984 31.264 21.536C31.588 21.872 31.5879 21.92 31.6119 22.364C31.5999 22.844 31.42 23.144 30.964 23.432C30.796 23.504 30.7 23.528 30.484 23.612C30.484 31.724 30.484 39.8 30.484 47.876C30.484 47.948 30.484 48.008 30.484 48.116C31.168 48.164 31.924 48.272 32.656 48.476C32.704 48.224 32.7279 48.116 32.7519 47.948C32.9199 46.952 33.088 45.944 33.256 44.936C33.736 42.116 34.216 39.308 34.696 36.488C35.26 33.2 35.728 30.332 36.304 27.044C36.364 26.756 36.436 26.324 36.436 26.324C36.04 25.232 35.296 23.768 34.588 22.508C33.292 20.108 31.828 17.816 30.208 15.62C30.076 15.44 29.9679 15.296 29.7759 15.104C28.6239 16.148 23.608 23.852 23.2 26.36L26.98 48.464C27.388 48.344 28.696 48.116 29.104 48.104Z" fill="#914F9B"></path>
  <path d="M25.6963 74.0722C25.7563 74.3962 25.9003 74.6242 26.1523 74.8282C27.2443 75.7042 28.3363 76.5802 29.4283 77.4562C29.5483 77.5522 29.6683 77.6362 29.8003 77.7202C29.8843 77.6722 29.9563 77.6362 30.0163 77.6002C31.0843 76.8202 32.1403 76.0282 33.2203 75.2482C33.4363 75.0922 33.5443 74.8882 33.5923 74.6362C33.8923 73.2802 34.0723 71.9122 34.1323 70.5322C34.2523 68.2282 34.1203 65.9362 33.6883 63.6562C33.4003 62.1202 32.9923 60.6322 32.3803 59.1922C31.9843 58.2682 31.5763 57.3202 30.9643 56.5282C30.8803 56.4202 30.6043 55.9882 30.4843 55.8682C30.4963 56.1322 30.4963 56.6482 30.4963 56.8042C30.4963 58.4122 30.4963 60.0322 30.4963 61.6402C30.4963 65.3962 30.5083 69.1642 30.5083 72.9202C30.5083 73.1122 30.5203 73.3042 30.4963 73.4962C30.4483 73.9162 30.1963 74.1562 29.8363 74.1562C29.4643 74.1562 29.2123 73.9162 29.1763 73.5082C29.1523 73.3042 29.1643 73.0882 29.1643 72.8722C29.1643 67.5922 29.1523 62.3242 29.1523 57.0442C29.1523 56.7922 29.1523 56.5402 29.1523 56.3002C29.1523 56.2162 29.1523 56.1202 29.1523 55.9042C28.9723 56.0962 28.7563 56.2882 28.6363 56.4322C28.1683 56.9962 27.7843 57.6202 27.4483 58.2682C26.6803 59.7802 26.1883 61.3882 25.8283 63.0442C25.3723 65.1682 25.2043 67.3282 25.2283 69.5002C25.2643 71.0242 25.4083 72.5482 25.6963 74.0722Z" fill="#F4A02D"></path>
  <path d="M21.3998 52.2082C21.6638 51.8602 21.7118 51.7642 22.0118 51.4042C20.5358 48.3202 19.1438 45.8842 17.6558 42.7402C17.6318 42.8602 17.6438 42.7882 17.6078 42.9562C17.3078 44.4682 17.2958 44.6242 17.0798 46.1482C16.8518 47.6842 16.6478 49.6642 16.5278 51.1882L20.4638 53.6482C20.6678 53.2522 21.1478 52.5442 21.3998 52.2082Z" fill="#F56D94"></path>
  <path d="M19.8399 43.8082C20.8479 45.8482 21.8079 47.8642 22.9359 49.9522C23.0079 50.1202 23.0919 50.2642 23.1639 50.3962C23.9439 49.7962 24.6999 49.3162 25.6839 48.8482L22.0479 28.5562C20.4639 32.2042 19.5519 35.0602 18.5799 38.9122C18.4959 39.2482 18.3159 40.0882 18.2319 40.4242C18.4959 41.0122 18.6399 41.3482 18.7119 41.5042C19.2279 42.6082 19.2999 42.7882 19.8399 43.8082Z" fill="#AA7CBE"></path>
  <path d="M28.2281 49.6519C22.9961 50.5999 19.6001 55.6279 20.6801 60.8359C21.0881 62.8279 22.0721 64.5079 23.5721 65.8879C23.6801 65.9839 23.8361 66.0799 23.9801 66.1519C23.9921 66.0439 24.0161 65.8879 24.0281 65.7799C24.2201 64.0279 24.5321 62.2999 25.0601 60.6079C25.5041 59.1799 26.0681 57.7999 26.8841 56.5279C27.4481 55.6519 28.1081 54.8599 28.9721 54.2599C29.0321 54.2119 29.1041 54.1759 29.1161 54.1759C29.1161 53.2399 29.1041 50.0479 29.1161 49.5439C28.8161 49.5799 28.4921 49.6039 28.2281 49.6519Z" fill="#FEDFA6"></path>
  <path d="M37.816 51.608C38.332 52.184 38.788 52.796 39.184 53.456C39.22 53.516 39.244 53.564 39.292 53.648C40.528 52.868 41.86 52.04 43.048 51.296C42.988 50.06 42.088 43.784 41.788 42.812L37.708 51.5C37.78 51.572 37.792 51.584 37.816 51.608Z" fill="#F56D94"></path>
  <path d="M20.2718 63.8C19.9598 63.044 19.6838 62.444 19.4918 61.688C19.2878 60.908 19.1678 60.116 19.1438 59.3C19.1198 58.508 19.1798 57.728 19.3118 56.948C19.4558 56.156 19.6358 55.676 19.8998 54.932L16.3958 52.772C16.3478 53.168 16.3478 53.264 16.3238 53.636C16.1678 56.492 16.1678 59.348 16.3238 62.204C16.3718 62.972 16.4198 63.56 16.4918 64.328C16.5038 64.436 16.5158 64.616 16.5278 64.712C17.1758 64.508 17.7878 64.268 18.3998 64.124C18.9998 63.98 19.5998 63.908 20.2718 63.8Z" fill="#FE97B1"></path>
  <path d="M42.5442 64.6998C41.5242 65.6838 40.5522 66.6558 39.3162 67.3158C38.3082 67.8558 37.9962 67.9758 36.7842 68.3838C36.2562 68.4798 35.8482 68.5038 35.5482 68.5518C35.4882 69.7398 35.5002 70.3998 35.3922 71.5398C35.2962 72.6798 35.2002 73.0878 35.0442 74.2758C35.4282 74.4558 35.7882 74.6118 36.8082 74.6118C38.3802 74.6118 39.7842 73.7718 40.6602 72.7998C41.2362 72.1638 41.2362 72.1638 41.9562 71.2998C42.0522 71.1558 42.0162 71.2158 42.1362 71.0358C42.3162 70.0518 42.6042 68.3238 42.7362 67.3518C42.8442 66.4638 42.9282 65.5638 43.0122 64.6638C43.0242 64.5558 43.0602 64.2918 43.0482 64.1958C42.8922 64.3278 42.6402 64.6158 42.5442 64.6998Z" fill="#E9FFFE"></path>
  <path d="M43.1321 52.8682L39.9041 54.8962C41.3801 58.8442 40.7921 63.1522 37.7561 66.3562C38.0801 66.2602 38.2481 66.1402 38.4521 66.0202C40.1561 64.9402 41.8241 63.5242 43.1561 62.0362C43.2881 61.8802 43.2401 61.6402 43.2401 61.4482C43.2521 60.8962 43.2641 60.6442 43.2881 60.0922C43.3841 57.9082 43.2881 55.7242 43.2041 53.5402C43.1921 53.3362 43.1801 53.1682 43.1321 52.8682Z" fill="#FE97B1"></path>
  <path d="M37.864 82.892C36.916 83.204 36.556 83.312 35.68 83.384C35.32 83.396 34.972 83.42 34.6 83.384C33.616 83.288 32.932 83.144 31.852 82.628C31.408 82.376 31.24 82.292 30.952 82.112C30.724 81.968 30.484 81.812 30.244 81.68C29.584 81.32 28.936 80.96 28.276 80.612C27.484 80.204 26.692 79.868 25.804 79.76C25 79.664 24.148 79.844 23.356 80.036C22.276 80.3 21.556 80.636 20.56 81.092C20.464 81.128 20.152 81.296 20.02 81.368C20.62 83.072 21.172 84.44 21.916 86.024C22.384 86.096 37.168 86.228 37.564 86.168C38.164 84.86 38.488 84.128 38.98 82.76C38.992 82.712 39.088 82.484 39.196 82.184C39.1 82.268 39.004 82.316 38.752 82.484C38.476 82.64 38.344 82.7 37.864 82.892Z" fill="#78D1DF"></path>
  <path d="M36.5081 76.0638C36.3641 76.0638 36.0161 76.0398 35.7041 75.9678C35.2481 75.8598 35.2721 75.8118 34.8401 75.6678C34.6241 75.7758 34.0241 76.3278 33.7841 76.5078C32.7521 77.2758 31.7201 78.0318 30.6881 78.7998C30.5441 78.9078 30.4121 79.0038 30.2681 79.0998C29.9441 79.3398 29.6321 79.3158 29.3081 79.0998C29.1881 79.0158 29.0561 78.9198 28.9361 78.8238C27.7361 77.8638 26.5361 76.9038 25.3481 75.9438C25.1081 75.7518 24.9041 75.5238 24.6761 75.3198C24.5561 75.2118 24.4961 75.0918 24.4601 74.9238C24.3401 74.1918 24.2201 73.4478 24.1001 72.7158C24.0521 72.4518 24.0761 72.5838 24.0401 72.3198C23.9561 72.3198 23.8241 72.3198 23.7641 72.3198C22.0121 72.3678 20.6681 72.7878 19.1561 73.5198C18.7361 73.7238 18.3881 73.9158 18.0281 74.1558C18.1721 75.2718 19.2521 79.2558 19.6001 79.9158C19.7081 79.8798 19.8281 79.8318 19.9361 79.7838C20.5121 79.5678 20.9921 79.3518 21.5681 79.1358C22.3001 78.8478 23.0801 78.5718 23.8601 78.4638C24.2921 78.4038 24.7121 78.3678 25.1441 78.3678C26.1041 78.4278 27.0401 78.5118 27.9161 78.9198C29.2841 79.5678 30.6161 80.2998 31.9121 81.0678C32.6321 81.4518 32.9681 81.6678 34.2521 81.8958H34.2641C35.0921 81.9798 35.3321 81.9558 35.7041 81.9438C36.4361 81.9438 36.8441 81.7998 37.4321 81.5598C37.6481 81.4638 37.9841 81.2718 38.1281 81.1878C38.8481 80.7558 39.2561 80.3838 39.7961 79.8678C39.9881 79.6878 40.0721 79.5678 40.1441 79.3158C40.6121 77.7798 41.0921 76.0518 41.4641 74.4798C41.4881 74.3718 41.5601 74.1678 41.6201 73.8558C41.4521 74.0118 41.2601 74.2518 41.1761 74.3358C39.7481 75.6798 38.4761 76.0398 36.5081 76.0638Z" fill="#ABE3DD"></path>
  <path d="M22.96 70.8559C23.272 70.8439 23.5 70.8319 23.908 70.8199C23.908 69.9319 23.884 68.7559 23.884 67.8799C23.8 67.8079 23.752 67.7599 23.704 67.7239C22.78 67.0639 21.964 66.2839 21.28 65.3719C21.22 65.2999 21.196 65.2519 21.148 65.1919C20.62 65.2519 20.08 65.3119 19.588 65.3959C18.892 65.5279 18.244 65.7439 17.596 65.9839C17.296 66.0919 17.032 66.2119 16.72 66.3439C16.876 68.0959 17.176 69.9439 17.488 71.6839C17.512 71.8279 17.608 72.3319 17.644 72.4999C17.752 72.4399 17.932 72.3199 18.016 72.2839C18.388 72.1279 18.556 72.0079 18.964 71.8639C20.5 71.2639 21.544 70.9759 22.96 70.8559Z" fill="#E9FFFE"></path>
  <path d="M44.5358 62.7078C44.6438 60.8118 44.7278 58.9158 44.6918 57.0198C44.6438 54.7038 44.5358 52.3758 44.2958 50.0718C44.0678 47.8998 43.7678 45.7278 43.3718 43.5798C42.6158 39.4758 41.5478 35.4678 40.1318 31.5438C37.7918 25.0638 34.5998 19.0278 30.3758 13.5678C30.1838 13.3398 30.0038 13.0998 29.8118 12.8838C29.4278 13.2678 29.1398 13.6398 28.8038 14.0598C25.5878 18.2838 22.9958 22.8558 20.9198 27.7278C17.5958 35.5278 15.7118 43.6758 15.0758 52.1118C14.8838 54.6798 14.8118 57.2478 14.8838 59.8158C14.9558 62.2878 15.1238 64.7598 15.4238 67.2198C15.7118 69.6198 16.1318 71.9958 16.6598 74.3598C17.6318 78.6918 19.0118 82.8918 20.8358 86.9478C20.9078 87.1158 21.0038 87.2838 21.0878 87.4398C26.8718 87.4998 32.6198 87.5478 38.4038 87.6078C38.4758 87.4518 38.5718 87.2838 38.6438 87.1158C41.4278 81.0318 43.1438 74.6478 44.0318 68.0358C44.2598 66.2598 44.4278 64.4838 44.5358 62.7078ZM43.0478 51.2958C41.8598 52.0398 40.5278 52.8798 39.2918 53.6478C39.2438 53.5518 39.2198 53.5158 39.1838 53.4558C38.7878 52.7958 38.3318 52.1838 37.8158 51.6078C37.7918 51.5838 37.7798 51.5598 37.7198 51.4998L41.7998 42.8118C42.0878 43.7838 42.9878 50.0718 43.0478 51.2958ZM29.1038 54.1758C29.0918 54.1758 29.0318 54.2118 28.9598 54.2598C28.0958 54.8598 27.4358 55.6518 26.8718 56.5278C26.0558 57.7998 25.4918 59.1678 25.0478 60.6078C24.5198 62.2998 24.2078 64.0278 24.0158 65.7798C24.0038 65.8878 23.9798 66.0438 23.9678 66.1518C23.8238 66.0798 23.6678 65.9838 23.5598 65.8878C22.0598 64.5078 21.0758 62.8278 20.6678 60.8358C19.5998 55.6158 22.9958 50.5998 28.2158 49.6518C28.4798 49.6038 28.7918 49.5918 29.0918 49.5558C29.1038 50.0478 29.1038 53.2398 29.1038 54.1758ZM25.8278 63.0318C26.1758 61.3758 26.6678 59.7678 27.4478 58.2558C27.7838 57.6078 28.1678 56.9838 28.6358 56.4198C28.7558 56.2758 28.9718 56.0718 29.1518 55.8918C29.1518 56.0958 29.1398 56.1918 29.1518 56.2878C29.1638 56.5398 29.1518 56.7918 29.1518 57.0318C29.1518 62.3118 29.1638 67.5798 29.1638 72.8598C29.1638 73.0758 29.1518 73.2798 29.1758 73.4958C29.2118 73.9038 29.4638 74.1438 29.8358 74.1438C30.1958 74.1438 30.4478 73.9038 30.4958 73.4838C30.5198 73.2918 30.5078 73.0998 30.5078 72.9078C30.5078 69.1518 30.4958 65.3838 30.4958 61.6278C30.4958 60.0198 30.4958 58.3998 30.4958 56.7918C30.4958 56.6238 30.4958 56.1198 30.4838 55.8558C30.6038 55.9878 30.8678 56.4078 30.9638 56.5158C31.5878 57.3078 31.9958 58.2678 32.3798 59.1798C32.9918 60.6198 33.3998 62.1078 33.6878 63.6438C34.1198 65.9238 34.2398 68.2158 34.1318 70.5198C34.0598 71.8998 33.8918 73.2678 33.5918 74.6238C33.5318 74.8878 33.4358 75.0798 33.2198 75.2358C32.1518 76.0158 31.0838 76.8078 30.0158 77.5878C29.9558 77.6358 29.8838 77.6598 29.7998 77.7078C29.6798 77.6238 29.5478 77.5398 29.4278 77.4438C28.3358 76.5678 27.2438 75.6798 26.1518 74.8158C25.8998 74.6118 25.7558 74.3838 25.6958 74.0598C25.4198 72.5478 25.2638 71.0238 25.2398 69.4878C25.2038 67.3158 25.3718 65.1558 25.8278 63.0318ZM33.6758 58.7718C33.3398 57.9558 32.9318 57.1758 32.4518 56.4318C31.9598 55.6878 31.3838 54.8598 30.6758 54.3078C30.6158 54.2598 30.5918 54.2358 30.4838 54.1398C30.4838 52.5678 30.4838 51.0798 30.4838 49.5438C31.4318 49.5438 33.6398 50.0958 35.0198 51.0198C36.9638 52.3158 38.2838 54.0798 38.9318 56.3238C39.5798 58.5678 39.3998 60.7638 38.4158 62.8878C37.7198 64.4118 36.3398 66.0198 35.4158 66.4158C35.3918 66.2118 35.3798 66.0078 35.3678 65.7918C35.3318 65.5878 35.3078 65.3718 35.2838 65.1678C35.0198 62.9598 34.5278 60.8238 33.6758 58.7718ZM37.4438 28.5678C37.6358 28.9038 37.6478 28.9158 37.6958 29.0478C38.3318 30.5718 38.8958 32.1078 39.4238 33.6798C40.1198 35.7558 40.6598 37.6758 41.1758 39.7998C41.2598 40.1358 41.2238 40.0158 41.2958 40.3278C39.8798 43.3638 38.3078 46.9878 36.9038 50.0358C36.8318 50.1918 36.7478 50.3358 36.6638 50.5038C36.1958 50.2038 35.7758 49.9038 35.3438 49.6398C34.9118 49.3878 34.4678 49.1238 33.9878 48.9078C34.0478 48.5118 34.0118 48.7758 34.0238 48.6558C35.1518 42.0078 36.2918 35.3598 37.4318 28.7238C37.4198 28.6878 37.4318 28.6758 37.4438 28.5678ZM29.7878 15.1038C29.9798 15.2958 30.0878 15.4398 30.2198 15.6198C31.8398 17.8158 33.3038 20.1078 34.5998 22.5078C35.3078 23.7678 36.0518 25.2318 36.4478 26.3238C36.4478 26.3238 36.3758 26.7558 36.3158 27.0438C35.7518 30.3318 35.2718 33.1998 34.7078 36.4878C34.2278 39.3078 33.7478 42.1158 33.2678 44.9358C33.0998 45.9318 32.9318 46.9398 32.7638 47.9478C32.7398 48.1158 32.7158 48.2358 32.6678 48.4758C31.9358 48.2838 31.1798 48.1638 30.4958 48.1158C30.4958 48.0078 30.4958 47.9478 30.4958 47.8758C30.4958 39.7998 30.4958 31.7238 30.4958 23.6118C30.7118 23.5278 30.8078 23.5038 30.9758 23.4318C31.4198 23.1558 31.6118 22.8438 31.6238 22.3638C31.5998 21.9078 31.5998 21.8598 31.2758 21.5358C30.6278 20.9838 29.1398 21.0318 28.4198 21.4998C28.0958 21.7038 27.9638 22.0518 27.9518 22.4238C27.9398 22.9038 28.1078 23.2518 28.6718 23.4798C28.8878 23.5638 28.9478 23.5638 29.1158 23.6118C29.1278 31.6878 29.1278 39.7278 29.1398 47.8158C29.1398 47.9118 29.1278 47.9838 29.1158 48.1038C28.7078 48.1278 27.3998 48.3438 27.0038 48.4638L23.2118 26.3598C23.6318 23.8518 28.6358 16.1478 29.7878 15.1038ZM18.5678 38.9118C19.5398 35.0598 20.4518 32.2038 22.0358 28.5558L25.6718 48.8478C24.6998 49.3158 23.9318 49.7958 23.1518 50.3958C23.0798 50.2638 22.9958 50.1078 22.9238 49.9518C21.8078 47.8638 20.8358 45.8478 19.8278 43.8078C19.2878 42.7878 19.2158 42.6078 18.6878 41.5158C18.6158 41.3598 18.4718 41.0238 18.2078 40.4358C18.3038 40.0878 18.4838 39.2598 18.5678 38.9118ZM17.0918 46.1598C17.3078 44.6358 17.3198 44.4918 17.6198 42.9678C17.6438 42.7998 17.6438 42.8718 17.6678 42.7518C19.1438 45.8958 20.5478 48.3318 22.0238 51.4158C21.7238 51.7758 21.6758 51.8718 21.4118 52.2198C21.1478 52.5558 20.6678 53.2518 20.4878 53.6598L16.5398 51.1998C16.6598 49.6878 16.8638 47.6958 17.0918 46.1598ZM16.5278 64.7118C16.5158 64.6158 16.5038 64.4358 16.4918 64.3278C16.4318 63.5598 16.3718 62.9718 16.3238 62.2038C16.1678 59.3478 16.1678 56.4918 16.3238 53.6358C16.3478 53.2518 16.3478 53.1678 16.3958 52.7718L19.8998 54.9318C19.6358 55.6758 19.4438 56.1558 19.3118 56.9478C19.1798 57.7278 19.1078 58.5078 19.1438 59.2998C19.1798 60.1038 19.2998 60.8958 19.4918 61.6878C19.6838 62.4438 19.9598 63.0558 20.2718 63.7998C19.5998 63.9078 18.9998 63.9798 18.3998 64.1238C17.7758 64.2678 17.1758 64.5078 16.5278 64.7118ZM17.6318 72.5118C17.5958 72.3438 17.4998 71.8398 17.4758 71.6958C17.1758 69.9558 16.8638 68.1078 16.7078 66.3558C17.0198 66.2238 17.2838 66.1038 17.5838 65.9958C18.2318 65.7558 18.8798 65.5278 19.5758 65.4078C20.0678 65.3238 20.6078 65.2638 21.1358 65.2038C21.1838 65.2638 21.2198 65.2998 21.2678 65.3838C21.9518 66.2958 22.7678 67.0758 23.6918 67.7358C23.7398 67.7718 23.7758 67.8078 23.8718 67.8918C23.8718 68.7678 23.8958 69.9438 23.8958 70.8318C23.4758 70.8438 23.2478 70.8438 22.9478 70.8678C21.5318 70.9878 20.4998 71.2758 18.9398 71.8878C18.5318 72.0438 18.3638 72.1518 17.9918 72.3078C17.9198 72.3318 17.7398 72.4638 17.6318 72.5118ZM38.9678 82.7598C38.4758 84.1278 38.1638 84.8598 37.5518 86.1678C37.1558 86.2278 22.3718 86.0958 21.9038 86.0238C21.1598 84.4398 20.6078 83.0718 20.0078 81.3678C20.1278 81.2958 20.4398 81.1278 20.5478 81.0918C21.5438 80.6358 22.2638 80.2878 23.3438 80.0358C24.1358 79.8438 24.9878 79.6638 25.7918 79.7598C26.6798 79.8678 27.4718 80.2158 28.2638 80.6118C28.9238 80.9478 29.5838 81.3198 30.2318 81.6798C30.4718 81.8118 30.7118 81.9678 30.9398 82.1118C31.2398 82.2918 31.3958 82.3638 31.8398 82.6278C32.9198 83.1318 33.6038 83.2878 34.5878 83.3838C34.9478 83.4198 35.2958 83.3958 35.6678 83.3838C36.5438 83.3238 36.9038 83.2038 37.8518 82.8918C38.3318 82.6998 38.4638 82.6398 38.7398 82.4838C38.9918 82.3158 39.0878 82.2678 39.1838 82.1838C39.0758 82.4838 38.9918 82.7118 38.9678 82.7598ZM41.4758 74.4438C41.1158 76.0158 40.6238 77.7438 40.1558 79.2798C40.0838 79.5318 39.9878 79.6518 39.8078 79.8318C39.2678 80.3478 38.8598 80.7198 38.1398 81.1518C37.9958 81.2358 37.6598 81.4278 37.4438 81.5238C36.8558 81.7638 36.4478 81.9078 35.7158 81.9078C35.3438 81.9198 35.1038 81.9438 34.2758 81.8598H34.2638C32.9798 81.6318 32.6438 81.4158 31.9238 81.0318C30.6158 80.2638 29.2958 79.5318 27.9278 78.8838C27.0518 78.4638 26.1158 78.3798 25.1558 78.3318C24.7238 78.3318 24.3038 78.3678 23.8718 78.4278C23.0918 78.5358 22.3118 78.8118 21.5798 79.0998C21.0038 79.3278 20.5238 79.5318 19.9478 79.7478C19.8398 79.7958 19.7198 79.8438 19.6118 79.8798C19.2638 79.2318 18.1718 75.2478 18.0398 74.1198C18.4118 73.8798 18.7478 73.6758 19.1678 73.4838C20.6798 72.7518 22.0238 72.3318 23.7758 72.2838C23.8358 72.2838 23.9678 72.2718 24.0518 72.2838C24.0878 72.5478 24.0758 72.4158 24.1118 72.6798C24.2318 73.4118 24.3518 74.1558 24.4718 74.8878C24.4958 75.0558 24.5678 75.1758 24.6878 75.2838C24.9158 75.4878 25.1198 75.7158 25.3598 75.9078C26.5478 76.8678 27.7478 77.8278 28.9478 78.7878C29.0678 78.8838 29.1878 78.9798 29.3198 79.0638C29.6318 79.2918 29.9558 79.3038 30.2798 79.0638C30.4238 78.9558 30.5558 78.8598 30.6998 78.7638C31.7318 77.9958 32.7758 77.2398 33.7958 76.4718C34.0238 76.2918 34.6358 75.7518 34.8518 75.6318C35.2958 75.7758 35.2598 75.8238 35.7158 75.9318C36.0278 76.0038 36.3758 76.0278 36.5198 76.0278C38.4878 76.0038 39.7718 75.6438 41.2118 74.2638C41.2958 74.1918 41.4878 73.9518 41.6558 73.7838C41.5718 74.1438 41.4998 74.3478 41.4758 74.4438ZM43.0238 64.6758C42.9398 65.5758 42.8558 66.4638 42.7478 67.3638C42.6278 68.3358 42.3278 70.0638 42.1478 71.0478C42.0278 71.2278 42.0758 71.1678 41.9678 71.3118C41.2478 72.1758 41.2478 72.1758 40.6718 72.8118C39.7958 73.7838 38.3798 74.6238 36.8198 74.6238C35.7998 74.6238 35.4398 74.4678 35.0558 74.2878C35.2118 73.0878 35.3078 72.6918 35.4038 71.5518C35.4998 70.4118 35.4998 69.7518 35.5598 68.5638C35.8478 68.5158 36.2678 68.4918 36.7958 68.3958C38.0078 67.9878 38.3198 67.8678 39.3278 67.3278C40.5638 66.6678 41.5358 65.6838 42.5558 64.7118C42.6518 64.6278 42.9038 64.3398 43.0718 64.2078C43.0598 64.3038 43.0238 64.5678 43.0238 64.6758ZM43.2998 60.0678C43.2758 60.6198 43.2638 60.8598 43.2518 61.4238C43.2518 61.6278 43.3118 61.8678 43.1678 62.0118C41.8358 63.4998 40.1678 64.9158 38.4638 65.9958C38.2598 66.1158 38.0918 66.2358 37.7678 66.3318C40.8038 63.1398 41.3798 58.8318 39.9158 54.8718L43.1438 52.8438C43.1918 53.1438 43.2038 53.3118 43.2158 53.4918C43.2998 55.6998 43.3958 57.8838 43.2998 60.0678Z" fill="black"></path>
  <path d="M11.0321 70.8438C10.7321 69.0918 10.4681 67.3278 10.3241 65.5398C10.2041 64.0878 10.0721 62.6358 10.0121 61.1838C9.88009 58.0158 9.92808 54.8598 10.2161 51.7038C10.3601 50.1558 10.5161 48.6078 10.7321 47.0718C11.0321 44.8278 11.4641 42.6078 11.9921 40.4118C12.0881 39.9918 11.9441 40.6398 12.2081 39.4398C11.8841 39.3918 11.1761 39.2238 10.9001 39.1758C10.7921 39.5478 10.7681 39.6918 10.7081 39.9318C10.0481 42.7518 9.53209 45.5958 9.18409 48.4758C8.88409 50.8998 8.69209 53.3238 8.63209 55.7598C8.52409 59.8638 8.69209 63.9678 9.23209 68.0478C9.62809 71.0358 10.1921 73.9878 10.9601 76.9038C11.8721 80.3958 13.0601 83.7918 14.5481 87.0798C14.6321 87.2718 14.6801 87.3678 14.8241 87.6318C15.2201 87.6318 15.6281 87.6318 16.1801 87.6198L15.4481 85.7718C13.3601 80.9598 11.9201 75.9918 11.0321 70.8438Z" fill="black"></path>
  <path d="M9.976 36.1762C10.48 36.3922 11.008 36.5842 11.548 36.7162C12.004 36.8362 12.364 36.6322 12.592 36.2002C12.688 36.0082 12.748 35.8162 12.82 35.6122C13.324 34.1602 13.816 32.7082 14.32 31.2682C14.392 31.0762 14.416 30.8602 14.596 30.6802C14.932 30.8002 15.292 30.8362 15.58 31.0882C14.872 33.2002 14.128 35.2642 13.432 37.3762C13.804 37.5322 14.116 37.6402 14.452 37.7482C14.488 37.6282 14.548 37.4722 14.596 37.3642C15.268 35.4082 15.94 33.4522 16.612 31.4962C16.66 31.3522 16.708 31.2082 16.72 31.0522C16.78 30.6202 16.624 30.2722 16.228 30.1042C15.7 29.8882 15.16 29.6842 14.608 29.5402C14.164 29.4202 13.828 29.6122 13.612 30.0322C13.528 30.2002 13.456 30.3802 13.396 30.5602C12.868 32.0962 12.328 33.6442 11.8 35.1802C11.752 35.3242 11.68 35.4442 11.608 35.5882C11.248 35.4802 10.996 35.3842 10.588 35.1922C10.66 34.9762 10.72 34.7842 10.792 34.5802C11.392 32.8162 12.004 31.0642 12.604 29.3002C12.652 29.1562 12.748 29.0242 12.652 28.8322C12.376 28.7122 12.088 28.5922 11.728 28.5562C11.668 28.6762 11.608 28.7962 11.56 28.9162C10.888 30.8602 10.228 32.7922 9.556 34.7362C9.508 34.8802 9.46 35.0242 9.448 35.1802C9.388 35.6602 9.532 35.9842 9.976 36.1762Z" fill="black"></path>
  <path d="M48.7597 35.4441C47.7997 35.6961 46.8277 35.9481 45.8677 36.2121C45.6877 36.2601 45.4957 36.3201 45.3277 36.4041C44.9557 36.5841 44.7997 36.8961 44.8237 37.2921C44.8357 37.4601 44.8837 37.6281 44.9197 37.7961C45.3757 39.5001 45.8317 41.2041 46.2877 42.9081C46.3357 43.0761 46.3837 43.2441 46.4557 43.3881C46.6237 43.7241 46.8997 43.9041 47.4277 43.8801C47.4637 43.8681 47.6317 43.8441 47.7997 43.8081C48.7837 43.5441 49.7677 43.2921 50.7397 43.0281C50.8717 42.9921 51.0037 42.9561 51.1237 42.9081C51.6517 42.6921 51.8557 42.3201 51.7597 41.7681C51.7357 41.6601 51.7117 41.5401 51.6757 41.4321C51.2197 39.7281 50.7637 38.0241 50.3077 36.3201C50.2597 36.1401 50.1877 35.9481 50.1037 35.7801C49.9477 35.4801 49.6957 35.3241 49.3597 35.3361C49.1797 35.3601 48.9637 35.3841 48.7597 35.4441ZM50.6557 41.8881C49.6237 42.2001 48.4957 42.4761 47.4277 42.7641C47.4037 42.6801 47.3797 42.6081 47.3557 42.5481C46.9117 40.8801 46.4677 39.2241 46.0237 37.5561C46.0117 37.5081 46.0117 37.5081 45.9757 37.3881C46.9357 37.0881 47.9557 36.8121 48.9277 36.5361C49.0117 36.5121 49.0957 36.5001 49.1797 36.4881C49.4077 36.9561 50.5237 41.3961 50.6557 41.8881Z" fill="black"></path>
  <path d="M51.2441 44.144C51.1481 44.156 51.0521 44.168 50.9561 44.18C50.2361 44.276 49.5161 44.372 48.7961 44.48C48.3761 44.54 47.9561 44.588 47.5481 44.696C47.0561 44.816 46.8521 45.116 46.8521 45.62C46.8521 45.872 46.8881 46.112 46.9121 46.364C47.1041 47.732 47.2961 49.1 47.4881 50.468C47.5361 50.852 47.6081 51.224 47.6681 51.608C47.7401 52.076 48.0761 52.472 48.7361 52.424C48.8321 52.412 48.9281 52.412 49.0241 52.4C49.9361 52.268 50.8481 52.136 51.7601 52.004C51.9641 51.98 52.1801 51.956 52.3841 51.908C52.9721 51.764 53.2241 51.428 53.2001 50.828C53.2001 50.696 53.1641 50.564 53.1521 50.432C52.9841 49.184 52.8041 47.924 52.6241 46.676C52.5521 46.124 52.4801 45.572 52.3841 45.032C52.2641 44.372 51.8921 44.096 51.2441 44.144ZM52.0841 50.816C52.0241 50.828 52.0001 50.828 51.8921 50.852C50.9321 50.996 49.9601 51.128 49.0001 51.26C48.9281 51.272 48.8681 51.284 48.7841 51.284C48.6521 50.732 48.0641 46.376 47.9921 45.776C48.5201 45.692 49.0961 45.572 49.6361 45.488C50.1641 45.404 50.7521 45.344 51.3161 45.26C51.3401 45.404 51.3401 45.476 51.3641 45.596C51.5921 47.228 51.8201 48.848 52.0481 50.48C52.0601 50.576 52.0841 50.732 52.0841 50.816Z" fill="black"></path>
  <path d="M49.5281 80.4199C49.3601 80.3239 49.1801 80.2519 49.0001 80.1799C48.0881 79.8439 47.1641 79.5079 46.2401 79.1839C46.0721 79.1239 45.9161 79.0639 45.7481 79.0279C45.3521 78.9439 45.0281 79.0759 44.8001 79.4239C44.7041 79.5679 44.6321 79.7239 44.5721 79.8919C43.9481 81.5839 43.3361 83.2759 42.7241 84.9679C42.6641 85.1239 42.6281 85.3039 42.6041 85.3759C42.5681 85.8679 42.7001 86.1319 43.0361 86.3359C43.1801 86.4199 43.3481 86.4919 43.5041 86.5519C44.4521 86.8999 45.4121 87.2479 46.3721 87.5959C46.5161 87.6439 46.6601 87.6919 46.8161 87.7279C47.2361 87.7999 47.5721 87.6679 47.7881 87.2839C47.8721 87.1399 47.9441 86.9719 48.0041 86.8159C48.6041 85.1839 49.2041 83.5399 49.7921 81.8959C49.8521 81.7399 49.9121 81.5719 49.9361 81.4039C50.0441 80.9839 49.9001 80.6479 49.5281 80.4199ZM46.9001 86.5759C46.3841 86.4079 45.8681 86.2159 45.3641 86.0239C44.8481 85.8319 44.3321 85.6519 43.7561 85.3999C44.3921 83.6359 45.0401 81.8839 45.6761 80.1559C46.2281 80.3359 46.7321 80.5399 47.2481 80.7199C47.7641 80.9119 48.3161 81.1159 48.8201 81.3319C48.6521 81.8359 47.2001 85.8319 46.9001 86.5759Z" fill="black"></path>
  <path d="M53.4041 54.8C53.4041 54.644 53.404 54.488 53.38 54.344C53.296 53.72 53.044 53.48 52.42 53.408C52.348 53.396 52.264 53.396 52.192 53.396C51.124 53.396 50.044 53.396 48.976 53.396C48.052 53.396 47.8 53.876 47.8 54.608C47.812 56.696 47.8 58.784 47.8 60.872C47.8 60.98 47.8 61.076 47.8 61.232C48.148 61.232 48.58 61.232 48.892 61.22C48.904 60.98 48.9041 60.788 48.9041 60.584C48.9041 58.784 48.9041 56.984 48.9041 55.184C48.9041 54.98 48.892 54.86 48.916 54.632C48.916 54.596 48.916 54.524 49.12 54.512C50.092 54.512 51.0761 54.512 52.0481 54.512C52.1561 54.512 52.2761 54.524 52.2641 54.596C52.2641 54.728 52.264 54.752 52.276 54.896C52.276 56.528 52.276 58.16 52.276 59.78C52.276 59.888 52.276 59.996 52.276 60.116C51.544 60.14 50.776 60.14 50.056 60.164C50.056 60.548 50.056 60.92 50.056 61.232C51.064 61.22 52.924 61.208 53.38 61.184C53.38 61.028 53.38 60.836 53.38 60.668C53.404 58.712 53.4041 56.756 53.4041 54.8Z" fill="black"></path>
  <path d="M42.7722 27.8718C42.6882 27.9078 42.6042 27.9558 42.5202 28.0038C42.2082 28.2198 42.0762 28.5198 42.1362 28.9038C42.1722 29.0958 42.2322 29.2758 42.2922 29.4558C42.9882 31.3638 43.6722 33.2718 44.3802 35.1798C44.4282 35.2998 44.4642 35.4318 44.5242 35.5518C44.8722 35.4318 45.2202 35.3118 45.5562 35.1798C45.4842 34.9758 45.4122 34.7598 45.3402 34.5798C44.7042 32.8278 44.0682 31.0878 43.4322 29.3358C43.3842 29.1918 43.2642 28.9878 43.3602 28.8438C43.3722 28.8198 43.3962 28.8078 43.4082 28.8078C43.5162 28.7598 43.8762 28.5918 44.2122 28.5438C44.3442 28.5198 44.3442 28.5918 44.3562 28.6518C45.1242 30.7278 45.8562 32.7678 46.6362 34.8078C46.7322 34.7718 46.7682 34.7478 46.8282 34.7358C47.7522 34.3998 48.6642 34.0638 49.5762 33.7278C49.6362 33.7038 49.6722 33.6798 49.7562 33.6558C49.6362 33.3318 49.4922 32.9718 49.3722 32.6478C49.2282 32.6958 49.1082 32.7318 48.9882 32.7798C48.5562 32.9358 48.1242 33.0918 47.6922 33.2478C47.5722 33.2838 47.4762 33.3318 47.3082 33.3678C46.9722 32.4438 46.6242 31.5078 46.3002 30.6078C46.2402 30.4398 46.3122 30.3078 46.3842 30.1758C46.6242 29.6598 46.8762 29.1318 47.1162 28.6158C47.2722 28.2678 47.4282 27.9198 47.5842 27.5958C47.4402 27.1878 47.2962 26.8398 47.1162 26.3838C46.6122 27.2838 46.2882 28.1718 45.7842 29.0958C45.7002 28.9158 45.6642 28.8318 45.6162 28.7478C45.5082 28.4838 45.4122 28.2318 45.3042 27.9438C45.0522 27.4158 44.6922 27.2358 44.1402 27.3918C43.6602 27.5238 43.2162 27.7158 42.7722 27.8718Z" fill="black"></path>
  <path d="M17.6201 18.9441C17.7641 18.7401 17.8841 18.5961 17.9921 18.4401C19.0481 16.9281 20.1041 15.4281 21.1601 13.9161C21.2801 13.7601 21.2801 13.7601 21.4841 13.4721C21.8441 13.7241 21.9761 13.7961 22.3961 14.1081C22.2761 14.2881 22.1801 14.4441 22.0721 14.6001C21.0161 16.1121 19.9601 17.6121 18.9041 19.1241C18.7961 19.2801 18.7001 19.4361 18.6041 19.6041C18.7121 19.6881 18.7721 19.7481 18.8561 19.8081C19.6481 20.3601 20.4281 20.9001 21.2201 21.4401C21.2321 21.4521 21.2801 21.4761 21.3161 21.5001C21.3401 21.4761 21.3281 21.4881 21.3761 21.4281C21.5681 21.1521 21.7121 20.9241 21.9161 20.6121C21.2081 20.0961 21.0041 19.9641 20.1641 19.3161C20.2721 19.1481 20.3801 18.9801 20.4881 18.8241C21.3881 17.5401 22.2881 16.2441 23.1881 14.9601C23.3321 14.7561 23.4521 14.5401 23.5601 14.3121C23.6921 14.0241 23.6201 13.7481 23.4281 13.4961C23.3321 13.3761 23.2241 13.2681 23.1041 13.1841C22.7921 12.9561 22.4801 12.7401 22.1681 12.5241C22.0601 12.4521 21.9401 12.3921 21.8081 12.3321C21.4721 12.1761 21.1601 12.2481 20.8961 12.4881C20.7401 12.6321 20.6081 12.8001 20.4881 12.9681C19.3241 14.6361 18.1481 16.2921 16.9841 17.9601C16.9121 18.0681 16.8521 18.1761 16.7681 18.2961C16.8521 18.3681 16.9001 18.4281 16.9601 18.4761C17.1521 18.6201 17.3561 18.7641 17.6201 18.9441Z" fill="black"></path>
  <path d="M36.5556 15.1282C36.9996 15.7522 37.4676 16.3642 37.8996 16.9882C39.8556 19.7962 41.5356 22.7482 42.9996 25.8322C43.1196 26.0482 43.1796 26.1562 43.3236 26.3842C43.6476 26.2162 43.9716 26.0482 44.2956 25.8802C44.3436 25.8562 44.3796 25.8322 44.4516 25.7962C44.3916 25.6402 44.3076 25.4482 44.2356 25.2922C42.2556 21.1042 39.8916 17.1562 36.9996 13.5202C36.7716 13.2682 36.7716 13.2802 36.6516 13.1602C36.6036 13.1122 36.4716 13.0282 36.4236 12.9922C36.4236 13.1122 36.4236 13.1362 36.4236 13.1722C36.4116 13.7242 36.4116 14.3962 36.4116 14.9482C36.4956 15.0442 36.4956 15.0442 36.5556 15.1282Z" fill="black"></path>
  <path d="M51.6639 71.5282C51.5439 71.4802 51.4119 71.4442 51.2799 71.4082C50.0559 71.0842 48.8439 70.7602 47.6199 70.4242C47.4879 70.3882 47.3679 70.3522 47.1999 70.3042C47.1039 70.6762 47.0079 71.0122 46.9119 71.3482C47.0919 71.4082 47.2479 71.4682 47.4159 71.5042C48.5439 71.8042 49.6719 72.1162 50.7999 72.4162C50.9199 72.4522 51.0399 72.5122 51.1839 72.5602C51.1599 72.7042 51.1599 72.8122 51.1239 72.9202C50.7039 74.4922 50.2839 76.0642 49.8639 77.6362C49.8399 77.7442 49.7679 77.8402 49.7199 77.9602C48.2919 77.5762 46.8879 77.2042 45.4839 76.8322C45.3759 77.2042 45.2799 77.5402 45.1719 77.8762C45.2799 77.9122 45.3759 77.9362 45.4599 77.9602C46.7919 78.3202 48.1239 78.6802 49.4559 79.0282C49.5879 79.0642 49.7199 79.0882 49.8519 79.0882C50.2599 79.1122 50.5599 78.9322 50.7279 78.5602C50.8119 78.3922 50.8719 78.2002 50.9199 78.0202C51.3639 76.3762 51.7959 74.7322 52.2399 73.0882C52.2879 72.9202 52.3239 72.7522 52.3479 72.5842C52.3839 72.0442 52.1799 71.7322 51.6639 71.5282Z" fill="black"></path>
  <path d="M16.5163 28.9399C16.6363 28.9999 16.7683 29.0359 16.9003 29.0599C17.2963 29.1559 17.6203 29.0239 17.8483 28.6879C17.9443 28.5439 18.0283 28.3879 18.1003 28.2319C18.8443 26.6479 19.5763 25.0639 20.3083 23.4919C20.3803 23.3359 20.4523 23.1799 20.5003 23.0119C20.6083 22.6039 20.4883 22.2439 20.1283 22.0039C19.9723 21.8959 19.7923 21.8119 19.6243 21.7279C18.4843 21.1879 17.3323 20.6599 16.1803 20.1199C16.0603 20.0599 15.9403 20.0119 15.8083 19.9639C15.6043 20.2759 15.4603 20.5879 15.3403 20.9479C16.0123 21.2599 16.6723 21.5719 17.3323 21.8839C18.0043 22.2079 18.6883 22.4839 19.3483 22.8439C19.3123 22.9519 19.2883 23.0239 19.2643 23.0959C18.5563 24.6199 17.8363 26.1559 17.1283 27.6799C17.0923 27.7639 17.0203 27.8239 16.9603 27.9079C15.6043 27.2959 14.3083 26.6599 12.9643 26.0719C12.7603 26.3839 12.6163 26.6959 12.5083 27.0199C12.5923 27.0679 12.6403 27.1279 12.7123 27.1519C13.9843 27.7519 15.2443 28.3519 16.5163 28.9399Z" fill="black"></path>
  <path d="M48.8917 64.5322C48.9517 63.8842 49.0237 63.2362 49.0837 62.5882C49.0957 62.5042 49.1317 62.3962 48.9637 62.3242C48.6877 62.5162 48.4237 62.7562 48.1357 62.9842C47.9917 63.0922 47.9077 63.2362 47.8957 63.4162C47.8597 63.8122 47.8117 64.2202 47.7757 64.6162C47.6077 66.2122 47.4277 67.8202 47.2597 69.4162C47.2477 69.5002 47.2597 69.5962 47.2597 69.6802C47.3317 69.6682 47.3797 69.6802 47.4037 69.6682C47.6797 69.4522 47.9437 69.2362 48.2197 69.0322C48.3877 68.9122 48.4597 68.7442 48.4717 68.5402C48.5077 68.0602 48.5557 67.5922 48.6157 67.1122C48.6277 66.9682 48.6517 66.7882 48.6757 66.5962C49.4077 66.6682 50.1757 66.7642 50.9077 66.8362C51.6637 66.9082 52.3237 66.9922 53.0557 67.0762C53.1157 66.6802 53.1637 66.3682 53.1757 65.9722C51.7357 65.8162 50.3077 65.6602 48.8077 65.5042C48.8437 65.1442 48.8677 64.8322 48.8917 64.5322Z" fill="black"></path>
</svg>
