<svg width="746" height="85" viewBox="0 0 746 85" fill="none" xmlns="http://www.w3.org/2000/svg">
<path d="M39.78 47.19C37.98 51.27 36.06 54.81 34.02 57.81C32.04 60.75 29.49 63 26.37 64.56C23.25 66.12 19.17 66.9 14.13 66.9C12.57 66.9 10.86 66.78 9 66.54C7.14 66.3 5.43 65.97 3.87 65.55V53.85C5.31 54.45 6.9 54.87 8.64 55.11C10.38 55.35 12 55.47 13.5 55.47C15.48 55.47 17.07 55.14 18.27 54.48C19.53 53.82 20.52 52.92 21.24 51.78C22.02 50.58 22.65 49.29 23.13 47.91L0.9 1.74H15.3L27.27 29.55C27.57 30.15 27.93 30.93 28.35 31.89C28.77 32.85 29.19 33.84 29.61 34.86C30.03 35.88 30.36 36.78 30.6 37.56H31.05C31.29 36.84 31.59 35.97 31.95 34.95C32.37 33.87 32.79 32.79 33.21 31.71C33.69 30.57 34.11 29.58 34.47 28.74L45.63 1.74H59.67L39.78 47.19ZM94.1688 12.18C91.5888 12.18 89.2788 12.69 87.2388 13.71C85.2588 14.73 83.5788 16.2 82.1988 18.12C80.8188 19.98 79.7688 22.26 79.0488 24.96C78.3888 27.66 78.0588 30.69 78.0588 34.05C78.0588 38.61 78.5988 42.51 79.6788 45.75C80.8188 48.93 82.5888 51.36 84.9888 53.04C87.3888 54.72 90.4488 55.56 94.1688 55.56C96.8088 55.56 99.4188 55.26 101.999 54.66C104.639 54.06 107.489 53.22 110.549 52.14V63.57C107.729 64.71 104.939 65.55 102.179 66.09C99.4188 66.63 96.3288 66.9 92.9088 66.9C86.3088 66.9 80.8488 65.55 76.5288 62.85C72.2688 60.09 69.1188 56.25 67.0788 51.33C65.0388 46.35 64.0188 40.56 64.0188 33.96C64.0188 29.1 64.6788 24.66 65.9988 20.64C67.3188 16.56 69.2388 13.05 71.7588 10.11C74.3388 7.17 77.4888 4.89 81.2088 3.27C84.9888 1.65 89.3088 0.839997 94.1688 0.839997C97.3488 0.839997 100.529 1.26 103.709 2.1C106.949 2.88 110.039 3.96 112.979 5.34L108.569 16.41C106.169 15.27 103.739 14.28 101.279 13.44C98.8788 12.6 96.5088 12.18 94.1688 12.18ZM175.054 66H161.464V13.08H145.714C145.354 15.84 144.964 18.84 144.544 22.08C144.184 25.32 143.764 28.62 143.284 31.98C142.864 35.28 142.414 38.43 141.934 41.43C141.454 44.37 140.974 46.98 140.494 49.26C139.714 52.98 138.664 56.16 137.344 58.8C136.084 61.44 134.314 63.45 132.034 64.83C129.814 66.21 126.904 66.9 123.304 66.9C122.104 66.9 120.964 66.81 119.884 66.63C118.804 66.45 117.784 66.21 116.824 65.91V54.75C117.604 54.99 118.354 55.2 119.074 55.38C119.854 55.56 120.694 55.65 121.594 55.65C122.794 55.65 123.784 55.26 124.564 54.48C125.344 53.7 126.034 52.38 126.634 50.52C127.234 48.6 127.834 45.96 128.434 42.6C128.734 41.16 129.094 39.12 129.514 36.48C129.934 33.78 130.414 30.63 130.954 27.03C131.554 23.37 132.154 19.41 132.754 15.15C133.354 10.83 133.924 6.36 134.464 1.74H175.054V66ZM222.944 47.19C221.144 51.27 219.224 54.81 217.184 57.81C215.204 60.75 212.654 63 209.534 64.56C206.414 66.12 202.334 66.9 197.294 66.9C195.734 66.9 194.024 66.78 192.164 66.54C190.304 66.3 188.594 65.97 187.034 65.55V53.85C188.474 54.45 190.064 54.87 191.804 55.11C193.544 55.35 195.164 55.47 196.664 55.47C198.644 55.47 200.234 55.14 201.434 54.48C202.694 53.82 203.684 52.92 204.404 51.78C205.184 50.58 205.814 49.29 206.294 47.91L184.064 1.74H198.464L210.434 29.55C210.734 30.15 211.094 30.93 211.514 31.89C211.934 32.85 212.354 33.84 212.774 34.86C213.194 35.88 213.524 36.78 213.764 37.56H214.214C214.454 36.84 214.754 35.97 215.114 34.95C215.534 33.87 215.954 32.79 216.374 31.71C216.854 30.57 217.274 29.58 217.634 28.74L228.794 1.74H242.834L222.944 47.19ZM291.532 1.74V12.99H264.532V66H250.942V1.74H291.532ZM301.391 1.74H313.631V32.79C313.631 34.29 313.601 35.97 313.541 37.83C313.481 39.69 313.421 41.52 313.361 43.32C313.301 45.06 313.241 46.59 313.181 47.91C313.121 49.17 313.061 50.04 313.001 50.52H313.271L342.971 1.74H359.261V66H347.111V35.13C347.111 33.51 347.141 31.74 347.201 29.82C347.261 27.84 347.321 25.95 347.381 24.15C347.501 22.35 347.591 20.79 347.651 19.47C347.771 18.09 347.861 17.19 347.921 16.77H347.561L317.771 66H301.391V1.74ZM395.961 1.74H408.201V32.79C408.201 34.29 408.171 35.97 408.111 37.83C408.051 39.69 407.991 41.52 407.931 43.32C407.871 45.06 407.811 46.59 407.751 47.91C407.691 49.17 407.631 50.04 407.571 50.52H407.841L437.541 1.74H453.831V66H441.681V35.13C441.681 33.51 441.711 31.74 441.771 29.82C441.831 27.84 441.891 25.95 441.951 24.15C442.071 22.35 442.161 20.79 442.221 19.47C442.341 18.09 442.431 17.19 442.491 16.77H442.131L412.341 66H395.961V1.74ZM550.922 55.2V84.72H537.782V66H490.532V1.74H504.122V54.66H527.792V1.74H541.382V55.2H550.922ZM597.834 66H560.844V1.74H597.834V12.9H574.434V27.03H596.214V38.19H574.434V54.75H597.834V66ZM663.855 66H650.265V38.28H624.795V66H611.205V1.74H624.795V26.94H650.265V1.74H663.855V66ZM680.024 66V1.74H693.614V26.4H698.024C703.964 26.4 708.854 27.24 712.694 28.92C716.534 30.6 719.354 32.91 721.154 35.85C723.014 38.79 723.944 42.15 723.944 45.93C723.944 50.13 723.014 53.73 721.154 56.73C719.294 59.73 716.414 62.04 712.514 63.66C708.674 65.22 703.694 66 697.574 66H680.024ZM697.214 54.84C701.234 54.84 704.384 54.18 706.664 52.86C709.004 51.54 710.174 49.23 710.174 45.93C710.174 43.65 709.634 41.91 708.554 40.71C707.534 39.51 706.004 38.7 703.964 38.28C701.924 37.8 699.464 37.56 696.584 37.56H693.614V54.84H697.214ZM731.774 66V1.74H745.364V66H731.774Z" fill="#00C2E2"/>
</svg>
