<svg width="1720" height="861" viewBox="0 0 1720 861" fill="none" xmlns="http://www.w3.org/2000/svg">
<path d="M1659.73 434.912L1659.73 380.912C1659.73 380.912 1565.77 380.784 1524.47 373.052C1429.48 355.264 1352.81 312.059 1271.13 276.349C1189.46 240.639 1094.93 211.353 990.92 224.902C907.017 235.828 827.763 273.105 748.28 303.931C668.797 334.757 579.06 360.434 502.978 345.221C426.411 329.901 367.923 274.565 283.677 290.671C221.948 302.466 175.1 348.98 115.216 368.829C55.7345 383.911 59.7346 380.412 59.7346 380.412L59.7344 416.912L59.7344 480.912L1659.73 480.912L1659.73 434.912Z" fill="#F2F9FB"/>
</svg>
