<svg width="21" height="30" viewBox="0 0 21 30" fill="none" xmlns="http://www.w3.org/2000/svg">
<path d="M10.2083 13.8542C9.2414 13.8542 8.31407 13.4701 7.63034 12.7863C6.94661 12.1026 6.5625 11.1753 6.5625 10.2083C6.5625 9.2414 6.94661 8.31407 7.63034 7.63034C8.31407 6.94661 9.2414 6.5625 10.2083 6.5625C11.1753 6.5625 12.1026 6.94661 12.7863 7.63034C13.4701 8.31407 13.8542 9.2414 13.8542 10.2083C13.8542 10.6871 13.7599 11.1612 13.5766 11.6035C13.3934 12.0459 13.1249 12.4478 12.7863 12.7863C12.4478 13.1249 12.0459 13.3934 11.6035 13.5766C11.1612 13.7599 10.6871 13.8542 10.2083 13.8542ZM10.2083 0C7.50091 0 4.90439 1.07552 2.98995 2.98995C1.07552 4.90439 0 7.50092 0 10.2083C0 17.8646 10.2083 29.1667 10.2083 29.1667C10.2083 29.1667 20.4167 17.8646 20.4167 10.2083C20.4167 7.50092 19.3411 4.90439 17.4267 2.98995C15.5123 1.07552 12.9158 0 10.2083 0Z" fill="#00C2E2"/>
</svg>
