<svg width="25.000000" height="25.000000" viewBox="0 0 25 25" fill="none" xmlns="http://www.w3.org/2000/svg" xmlns:xlink="http://www.w3.org/1999/xlink">
	<desc>
			Created with Pixso.
	</desc>
	<defs/>
	<path id="Vector" d="M7.25 0L17.75 0C21.75 0 25 3.25 25 7.25L25 17.75C25 19.6729 24.2362 21.5171 22.8765 22.8765C21.5169 24.2363 19.6728 25 17.75 25L7.25 25C3.25 25 0 21.75 0 17.75L0 7.25C0 5.32715 0.763836 3.48291 2.12347 2.12354C3.48312 0.763672 5.32718 0 7.25 0ZM7 2.5C5.80653 2.5 4.66193 2.97412 3.81802 3.81787C2.97411 4.66211 2.5 5.80664 2.5 7L2.5 18C2.5 20.4873 4.5125 22.5 7 22.5L18 22.5C19.1935 22.5 20.3381 22.0259 21.182 21.1821C22.0259 20.3379 22.5 19.1934 22.5 18L22.5 7C22.5 4.5127 20.4875 2.5 18 2.5L7 2.5ZM19.0625 4.375C19.4769 4.375 19.8743 4.53955 20.1674 4.83252C20.4604 5.12549 20.625 5.52295 20.625 5.9375C20.625 6.35205 20.4604 6.74951 20.1674 7.04248C19.8743 7.33545 19.4769 7.5 19.0625 7.5C18.6481 7.5 18.2507 7.33545 17.9576 7.04248C17.6646 6.74951 17.5 6.35205 17.5 5.9375C17.5 5.52295 17.6646 5.12549 17.9576 4.83252C18.2507 4.53955 18.6481 4.375 19.0625 4.375ZM12.5 6.25C14.1576 6.25 15.7473 6.90869 16.9194 8.08057C18.0915 9.25293 18.75 10.8423 18.75 12.5C18.75 14.1577 18.0915 15.7471 16.9194 16.9194C15.7473 18.0913 14.1576 18.75 12.5 18.75C10.8424 18.75 9.25269 18.0913 8.08058 16.9194C6.90848 15.7471 6.25 14.1577 6.25 12.5C6.25 10.8423 6.90848 9.25293 8.08058 8.08057C9.25269 6.90869 10.8424 6.25 12.5 6.25ZM12.5 8.75C11.5054 8.75 10.5516 9.14502 9.84835 9.84814C9.14509 10.5518 8.75 11.5054 8.75 12.5C8.75 13.4946 9.14509 14.4482 9.84835 15.1519C10.5516 15.855 11.5054 16.25 12.5 16.25C13.4946 16.25 14.4484 15.855 15.1516 15.1519C15.8549 14.4482 16.25 13.4946 16.25 12.5C16.25 11.5054 15.8549 10.5518 15.1516 9.84814C14.4484 9.14502 13.4946 8.75 12.5 8.75Z" fill="#00C2E2" fill-opacity="1.000000" fill-rule="nonzero"/>
</svg>
