<svg width="25.000000" height="25.000000" viewBox="0 0 25 25" fill="none" xmlns="http://www.w3.org/2000/svg" xmlns:xlink="http://www.w3.org/1999/xlink">
	<desc>
			Created with Pixso.
	</desc>
	<defs/>
	<path id="Vector" d="M12.5 0C5.6 0 0 5.6001 0 12.5C0 19.3999 5.6 25 12.5 25C19.4 25 25 19.3999 25 12.5C25 5.6001 19.4 0 12.5 0ZM18.3 8.5C18.1125 10.4751 17.3 15.2749 16.8875 17.4873C16.7125 18.4248 16.3625 18.7373 16.0375 18.7749C15.3125 18.8374 14.7625 18.2998 14.0625 17.8374C12.9625 17.1123 12.3375 16.6626 11.275 15.9624C10.0375 15.1499 10.8375 14.7002 11.55 13.9751C11.7375 13.7876 14.9375 10.875 15 10.6123C15.0087 10.5728 15.0075 10.5312 14.9966 10.4922C14.9857 10.4531 14.9654 10.417 14.9375 10.3877C14.8625 10.3252 14.7625 10.3501 14.675 10.3623C14.5625 10.3877 12.8125 11.5498 9.4 13.8501C8.9 14.1875 8.45 14.3623 8.05 14.3501C7.6 14.3374 6.75 14.1001 6.1125 13.8877C5.325 13.6377 4.7125 13.5 4.7625 13.0625C4.7875 12.8374 5.1 12.6123 5.6875 12.375C9.3375 10.7876 11.7625 9.7373 12.975 9.2373C16.45 7.7876 17.1625 7.5376 17.6375 7.5376C17.7375 7.5376 17.975 7.5625 18.125 7.6875C18.25 7.7876 18.2875 7.9248 18.3 8.0249C18.2875 8.1001 18.3125 8.3252 18.3 8.5Z" fill="#00C2E2" fill-opacity="1.000000" fill-rule="nonzero"/>
</svg>
