<svg width="25.000000" height="25.000000" viewBox="0 0 25 25" fill="none" xmlns="http://www.w3.org/2000/svg" xmlns:xlink="http://www.w3.org/1999/xlink">
	<desc>
			Created with Pixso.
	</desc>
	<defs/>
	<path id="Vector" d="M16.3412 0L8.67125 0C1.66625 0 0 1.66602 0 8.65869L0 16.3286C0 23.3325 1.65375 25 8.65875 25L16.3288 25C23.3325 25 25 23.3462 25 16.3413L25 8.67139C25 1.66602 23.3463 0 16.3412 0ZM20.1825 17.8374L18.3587 17.8374C17.6687 17.8374 17.4612 17.2788 16.2238 16.041C15.1438 15 14.6875 14.8701 14.4138 14.8701C14.0363 14.8701 13.9325 14.9736 13.9325 15.4951L13.9325 17.1348C13.9325 17.5786 13.7888 17.8389 12.63 17.8389C11.5054 17.7632 10.4149 17.4214 9.44824 16.8418C8.4816 16.2622 7.66646 15.4614 7.07001 14.5049C5.65396 12.7427 4.66868 10.6738 4.1925 8.46387C4.1925 8.18994 4.29625 7.94238 4.8175 7.94238L6.64 7.94238C7.10875 7.94238 7.2775 8.15137 7.46124 8.63232C8.34625 11.2373 9.85625 13.5024 10.4688 13.5024C10.7038 13.5024 10.8062 13.3989 10.8062 12.8125L10.8062 10.1299C10.7287 8.90625 10.0788 8.80273 10.0788 8.35986C10.0871 8.24316 10.1406 8.13428 10.2279 8.05664C10.3151 7.97852 10.4293 7.9375 10.5462 7.94238L13.4113 7.94238C13.8025 7.94238 13.9325 8.1377 13.9325 8.60645L13.9325 12.2261C13.9325 12.6177 14.1013 12.7476 14.2188 12.7476C14.4538 12.7476 14.635 12.6177 15.065 12.1875C15.9886 11.061 16.7432 9.80615 17.305 8.4624C17.3624 8.30127 17.4711 8.16309 17.6144 8.06885C17.7577 7.9751 17.9278 7.93066 18.0988 7.94238L19.9225 7.94238C20.4688 7.94238 20.585 8.21631 20.4688 8.60645C19.8056 10.0918 18.9851 11.502 18.0213 12.8125C17.825 13.1123 17.7462 13.2686 18.0213 13.6201C18.2025 13.8936 18.8412 14.4277 19.2713 14.9351C19.8961 15.5581 20.415 16.2793 20.8075 17.0698C20.9637 17.5776 20.7025 17.8374 20.1825 17.8374Z" fill="#00C2E2" fill-opacity="1.000000" fill-rule="nonzero"/>
</svg>
