<svg width="24.875002" height="25.000000" viewBox="0 0 24.875 25" fill="none" xmlns="http://www.w3.org/2000/svg" xmlns:xlink="http://www.w3.org/1999/xlink">
	<desc>
			Created with Pixso.
	</desc>
	<defs/>
	<path id="Vector" d="M21.25 3.6377C20.104 2.47998 18.739 1.56201 17.2345 0.9375C15.7301 0.312988 14.1164 -0.00537109 12.4875 0C5.6625 0 0.1 5.5625 0.1 12.3877C0.1 14.5752 0.675 16.7002 1.75 18.5752L0 25L6.5625 23.2749C8.375 24.2627 10.4125 24.7876 12.4875 24.7876C19.3125 24.7876 24.875 19.2251 24.875 12.3999C24.875 9.0874 23.5875 5.9751 21.25 3.6377ZM12.4875 22.6875C10.6375 22.6875 8.825 22.1875 7.2375 21.25L6.8625 21.0249L2.9625 22.0503L4 18.25L3.75 17.8628C2.72218 16.2212 2.17642 14.3242 2.175 12.3877C2.175 6.7124 6.8 2.0874 12.475 2.0874C15.225 2.0874 17.8125 3.1626 19.75 5.11279C20.7094 6.06738 21.4696 7.20361 21.9867 8.45459C22.5039 9.70508 22.7675 11.0464 22.7625 12.3999C22.7875 18.0752 18.1625 22.6875 12.4875 22.6875ZM18.1375 14.9878C17.825 14.8374 16.3 14.0874 16.025 13.9751C15.7375 13.875 15.5375 13.8252 15.325 14.125C15.1125 14.4375 14.525 15.1377 14.35 15.3374C14.175 15.5503 13.9875 15.5752 13.675 15.4126C13.3625 15.2627 12.3625 14.9253 11.1875 13.875C10.2625 13.0503 9.65 12.0376 9.4625 11.7251C9.2875 11.4126 9.4375 11.25 9.6 11.0874C9.7375 10.9502 9.9125 10.7251 10.0625 10.5503C10.2125 10.375 10.275 10.2378 10.375 10.0376C10.475 9.8252 10.425 9.6499 10.35 9.5C10.275 9.3501 9.65 7.8252 9.4 7.2002C9.15 6.6001 8.8875 6.67529 8.7 6.6626L8.1 6.6626C7.8875 6.6626 7.5625 6.73779 7.275 7.05029C7 7.36279 6.2 8.11279 6.2 9.6377C6.2 11.1626 7.3125 12.6377 7.4625 12.8374C7.6125 13.0503 9.65 16.1753 12.75 17.5127C13.4875 17.8374 14.0625 18.0249 14.5125 18.1626C15.25 18.3999 15.925 18.3628 16.4625 18.2876C17.0625 18.2002 18.3 17.5376 18.55 16.8125C18.8125 16.0874 18.8125 15.4751 18.725 15.3374C18.6375 15.2002 18.45 15.1377 18.1375 14.9878Z" fill="#00C2E2" fill-opacity="1.000000" fill-rule="nonzero"/>
</svg>
